<svg width="66" height="67" viewBox="0 0 66 67" fill="none" xmlns="http://www.w3.org/2000/svg">
<rect x="0.198242" y="0.839844" width="65.387" height="65.387" rx="16" fill="#36DA76"/>
<path d="M41.3595 46.2776C41.3047 45.1041 41.2319 43.9369 41.1738 42.7723C40.9856 39.1291 41.001 35.4325 40.8042 31.7713C40.6073 28.1375 40.7241 24.5013 40.6202 20.8677C40.5993 20.1125 40.633 18.6211 39.8516 18.1906C38.1706 17.2657 37.1727 19.7883 36.745 20.8153C35.9741 22.6795 35.5287 24.6401 34.9781 26.5714C34.5088 28.2245 33.9743 29.8722 33.7932 31.5838C33.659 32.868 33.6713 34.3058 34.3422 35.463C34.6792 36.0446 35.2617 36.4404 35.925 36.6077C36.6134 36.7838 37.4006 36.5532 38.0538 36.8641C38.2222 36.9455 38.3706 37.1146 38.4382 37.2853C38.6499 37.8355 38.4496 38.6704 38.3834 39.238C38.1737 41.0668 37.952 42.9137 37.8527 44.7511C37.794 45.8624 37.7291 47.2856 38.4013 48.2537C38.8134 48.8417 39.6484 49.3907 40.4019 49.0985C41.528 48.6674 41.4063 47.2113 41.3595 46.2776V46.2776Z" fill="white"/>
<path d="M27.033 19.0022C26.7093 19.132 26.8321 20.289 26.8176 20.6446C26.7964 21.2833 26.84 22.1284 26.7631 22.9562C26.7626 22.9636 26.7615 22.9687 26.7604 22.9738C26.7538 23.0314 26.7484 23.0934 26.7389 23.1589C26.7288 23.2222 26.7181 23.2832 26.7103 23.3459C26.6414 23.7494 26.51 24.2274 26.2618 24.4565C25.9799 24.7186 25.3484 24.6635 25.129 24.3538C24.7702 23.8497 24.7971 22.7243 24.7753 22.6911C24.7607 22.1587 24.6832 20.5484 24.5668 19.4868C24.5572 19.4068 24.5417 18.9255 24.1023 18.8741C23.8974 18.8519 23.6818 19.0265 23.612 19.3454C23.4056 20.2867 23.2124 22.081 23.2002 22.3631C23.1977 22.3904 23.1965 22.4223 23.1964 22.449C23.1964 22.449 23.1953 22.4542 23.1959 22.4564C23.1946 22.515 23.1248 23.9208 22.7691 24.4057C22.5832 24.66 22.1004 24.86 21.6207 24.5909C21.4297 24.4826 21.2987 24.2738 21.2064 24.0502C20.7048 22.4889 21.1551 20.7688 21.2192 19.9492C21.2382 19.7187 21.4469 18.949 20.9812 18.9748C20.28 19.0129 19.3744 22.0006 19.2125 22.6853C18.8155 24.3892 18.7553 26.2097 19.4458 27.8533C19.8294 28.7634 20.5797 29.5084 21.5101 29.8696C21.9212 30.0278 22.3782 30.1426 22.862 30.2092C22.688 34.0826 22.4903 38.1246 22.3103 40.3741C22.1719 42.0669 22.0084 43.7783 22.0304 45.4782C22.0434 46.4938 22.0327 47.7047 22.6994 48.5563C23.3967 49.4459 24.8676 49.0367 25.2648 47.9854C25.7103 46.8004 25.5807 45.4194 25.429 43.2436C25.2767 41.0655 25.1053 38.0942 25.0108 36.4955C24.8725 34.1415 24.8242 32.0845 24.8109 30.2077C26.0496 30.0307 27.2048 29.4992 27.8514 28.5218C28.1351 28.0943 28.3218 27.6166 28.4494 27.1251C28.645 26.3807 28.7404 25.5651 28.6981 24.7973C28.6552 24.0902 28.0741 18.5851 27.033 19.0022V19.0022Z" fill="white"/>
</svg>
