<svg width="24" height="25" viewBox="0 0 24 25" fill="none" xmlns="http://www.w3.org/2000/svg">
<path fill-rule="evenodd" clip-rule="evenodd" d="M7.42718 5.9827C7.27562 5.9827 7.13028 6.0429 7.02312 6.15007C6.91595 6.25723 6.85575 6.40258 6.85575 6.55413V8.83984C6.85575 8.9914 6.91595 9.13674 7.02312 9.2439C7.13028 9.35107 7.27562 9.41127 7.42718 9.41127C7.57873 9.41127 7.72407 9.35107 7.83124 9.2439C7.9384 9.13674 7.9986 8.9914 7.9986 8.83984V6.55413C7.9986 6.40258 7.9384 6.25723 7.83124 6.15007C7.72407 6.0429 7.57873 5.9827 7.42718 5.9827ZM7.42718 4.83984C7.88183 4.83984 8.31787 5.02046 8.63936 5.34195C8.96085 5.66344 9.14146 6.09947 9.14146 6.55413V8.83984C9.14146 9.2945 8.96085 9.73054 8.63936 10.052C8.31787 10.3735 7.88183 10.5541 7.42718 10.5541C6.97252 10.5541 6.53648 10.3735 6.21499 10.052C5.8935 9.73054 5.71289 9.2945 5.71289 8.83984V6.55413C5.71289 6.09947 5.8935 5.66344 6.21499 5.34195C6.53648 5.02046 6.97252 4.83984 7.42718 4.83984Z" fill="#303030"/>
<path fill-rule="evenodd" clip-rule="evenodd" d="M8 7.69643C8 7.38084 8.25584 7.125 8.57143 7.125H21.1429C21.4584 7.125 21.7143 7.38084 21.7143 7.69643C21.7143 8.01202 21.4584 8.26786 21.1429 8.26786H8.57143C8.25584 8.26786 8 8.01202 8 7.69643Z" fill="#303030"/>
<path fill-rule="evenodd" clip-rule="evenodd" d="M2.28516 7.69643C2.28516 7.38084 2.54099 7.125 2.85658 7.125H6.28516C6.60075 7.125 6.85658 7.38084 6.85658 7.69643C6.85658 8.01202 6.60075 8.26786 6.28516 8.26786H2.85658C2.54099 8.26786 2.28516 8.01202 2.28516 7.69643Z" fill="#303030"/>
<path fill-rule="evenodd" clip-rule="evenodd" d="M7.42718 17.4104C7.27562 17.4104 7.13028 17.4706 7.02312 17.5778C6.91595 17.685 6.85575 17.8303 6.85575 17.9819V20.2676C6.85575 20.4191 6.91595 20.5645 7.02312 20.6716C7.13028 20.7788 7.27562 20.839 7.42718 20.839C7.57873 20.839 7.72407 20.7788 7.83124 20.6716C7.9384 20.5645 7.9986 20.4191 7.9986 20.2676V17.9819C7.9986 17.8303 7.9384 17.685 7.83124 17.5778C7.72407 17.4706 7.57873 17.4104 7.42718 17.4104ZM6.21499 16.7697C6.53648 16.4482 6.97252 16.2676 7.42718 16.2676C7.88183 16.2676 8.31787 16.4482 8.63936 16.7697C8.96085 17.0912 9.14146 17.5272 9.14146 17.9819V20.2676C9.14146 20.7222 8.96085 21.1583 8.63936 21.4798C8.31787 21.8013 7.88183 21.9819 7.42718 21.9819C6.97252 21.9819 6.53648 21.8013 6.21499 21.4798C5.8935 21.1583 5.71289 20.7222 5.71289 20.2676V17.9819C5.71289 17.5272 5.8935 17.0912 6.21499 16.7697Z" fill="#303030"/>
<path fill-rule="evenodd" clip-rule="evenodd" d="M8 19.1261C8 18.8105 8.25584 18.5547 8.57143 18.5547H21.1429C21.4584 18.5547 21.7143 18.8105 21.7143 19.1261C21.7143 19.4417 21.4584 19.6975 21.1429 19.6975H8.57143C8.25584 19.6975 8 19.4417 8 19.1261Z" fill="#303030"/>
<path fill-rule="evenodd" clip-rule="evenodd" d="M2.28516 19.1261C2.28516 18.8105 2.54099 18.5547 2.85658 18.5547H6.28516C6.60075 18.5547 6.85658 18.8105 6.85658 19.1261C6.85658 19.4417 6.60075 19.6975 6.28516 19.6975H2.85658C2.54099 19.6975 2.28516 19.4417 2.28516 19.1261Z" fill="#303030"/>
<path fill-rule="evenodd" clip-rule="evenodd" d="M16.5717 11.6975C16.4202 11.6975 16.2748 11.7577 16.1676 11.8649C16.0605 11.9721 16.0003 12.1174 16.0003 12.269V14.5547C16.0003 14.7062 16.0605 14.8516 16.1676 14.9587C16.2748 15.0659 16.4202 15.1261 16.5717 15.1261C16.7233 15.1261 16.8686 15.0659 16.9758 14.9587C17.0829 14.8516 17.1431 14.7062 17.1431 14.5547V12.269C17.1431 12.1174 17.0829 11.9721 16.9758 11.8649C16.8686 11.7577 16.7233 11.6975 16.5717 11.6975ZM16.5717 10.5547C17.0264 10.5547 17.4624 10.7353 17.7839 11.0568C18.1054 11.3783 18.286 11.8143 18.286 12.269V14.5547C18.286 15.0093 18.1054 15.4454 17.7839 15.7669C17.4624 16.0884 17.0264 16.269 16.5717 16.269C16.1171 16.269 15.681 16.0884 15.3595 15.7669C15.038 15.4454 14.8574 15.0093 14.8574 14.5547V12.269C14.8574 11.8143 15.038 11.3783 15.3595 11.0568C15.681 10.7353 16.1171 10.5547 16.5717 10.5547Z" fill="#303030"/>
<path fill-rule="evenodd" clip-rule="evenodd" d="M2.28516 13.4113C2.28516 13.0957 2.54099 12.8398 2.85658 12.8398H15.428C15.7436 12.8398 15.9994 13.0957 15.9994 13.4113C15.9994 13.7269 15.7436 13.9827 15.428 13.9827H2.85658C2.54099 13.9827 2.28516 13.7269 2.28516 13.4113Z" fill="#303030"/>
<path fill-rule="evenodd" clip-rule="evenodd" d="M17.1426 13.4113C17.1426 13.0957 17.3984 12.8398 17.714 12.8398H21.1426C21.4582 12.8398 21.714 13.0957 21.714 13.4113C21.714 13.7269 21.4582 13.9827 21.1426 13.9827H17.714C17.3984 13.9827 17.1426 13.7269 17.1426 13.4113Z" fill="#303030"/>
</svg>
