<svg width="108" height="16" viewBox="0 0 108 16" fill="none" xmlns="http://www.w3.org/2000/svg">
<path d="M5.27078 7.87348L102.279 8.01139" stroke="#CACACA" stroke-width="0.836813" stroke-linecap="square" stroke-dasharray="1.67 4.18"/>
<path d="M51.116 15.4443H52.7688L56.9008 9.08451L61.446 9.08451C62.1319 9.08451 62.6855 8.55189 62.6855 7.89205C62.6855 7.23221 62.1319 6.69959 61.446 6.69959L56.9008 6.69959L52.7688 0.339844L51.116 0.339844L53.182 6.69963L48.6369 6.69963L47.3973 5.10967H46.1577L46.9841 7.89209L46.1577 10.6745H47.3973L48.6369 9.08451H53.182L51.116 15.4443Z" fill="#1262AE"/>
<circle cx="5.36719" cy="7.83984" r="3.66319" fill="white" stroke="#1262AE" stroke-width="1.67363"/>
<path d="M107.139 8.52391C107.139 10.3423 105.598 11.8712 103.627 11.8712C101.656 11.8712 100.114 10.3423 100.114 8.52391C100.114 6.70555 101.656 5.17666 103.627 5.17666C105.598 5.17666 107.139 6.70555 107.139 8.52391Z" fill="white" stroke="#1262AE" stroke-width="1.67363"/>
</svg>
