<svg width="119" height="25" viewBox="0 0 119 25" fill="none" xmlns="http://www.w3.org/2000/svg">
<line x1="5.49219" y1="12.6289" x2="109.044" y2="12.6289" stroke="#CCCCCC" stroke-dasharray="3 3"/>
<path d="M58.0725 22.5469H56.7071C56.5699 22.5468 56.4349 22.5154 56.3144 22.4553C56.1939 22.3953 56.0919 22.3086 56.0175 22.2033C55.9432 22.0979 55.899 21.9772 55.8889 21.8521C55.8787 21.7271 55.9031 21.6017 55.9597 21.4875L59.2661 14.8195L54.3014 14.7188L52.4907 16.7236C52.1455 17.1202 51.8701 17.2969 51.1673 17.2969H50.2482C50.1026 17.3012 49.9581 17.2733 49.8268 17.2157C49.6956 17.1581 49.5815 17.0724 49.4941 16.9659C49.3721 16.8155 49.252 16.5605 49.369 16.1967L50.3856 12.8686C50.3933 12.8437 50.4025 12.8189 50.4128 12.7945C50.4133 12.7922 50.4133 12.7898 50.4128 12.7875C50.4022 12.7631 50.3931 12.7383 50.3856 12.713L49.368 9.36375C49.2577 9.00703 49.3782 8.75766 49.4993 8.61094C49.5806 8.51237 49.686 8.4326 49.8072 8.37806C49.9283 8.32351 50.0618 8.29571 50.1969 8.29688H51.1673C51.6921 8.29688 52.2014 8.51203 52.501 8.85938L54.2742 10.8305L59.2661 10.763L55.9607 4.10672C55.9041 3.99255 55.8796 3.86723 55.8896 3.7422C55.8996 3.61717 55.9437 3.49643 56.018 3.39101C56.0922 3.28559 56.1942 3.19886 56.3145 3.13874C56.4349 3.07862 56.5699 3.04704 56.7071 3.04688H58.0874C58.2799 3.05041 58.4692 3.09354 58.641 3.17307C58.8128 3.2526 58.9628 3.36648 59.0799 3.50625L65.4942 10.6313L68.4574 10.56C68.6744 10.5492 69.2755 10.5455 69.4145 10.5455C72.249 10.5469 73.9417 11.3878 73.9417 12.7969C73.9417 13.2403 73.7478 14.0625 72.4506 14.5856C71.6848 14.895 70.663 15.0516 69.4135 15.0516C69.2761 15.0516 68.6764 15.0478 68.4564 15.037L65.4937 14.9648L59.0635 22.0898C58.9463 22.229 58.7964 22.3423 58.6249 22.4214C58.4534 22.5005 58.2646 22.5434 58.0725 22.5469V22.5469Z" fill="#1262AE"/>
<circle cx="5.75098" cy="13.1289" r="4" fill="white" stroke="#1262AE" stroke-width="2"/>
<circle cx="113.102" cy="12.7109" r="4" fill="white" stroke="#1262AE" stroke-width="2"/>
</svg>
