<svg width="66" height="67" viewBox="0 0 66 67" fill="none" xmlns="http://www.w3.org/2000/svg">
<rect x="0.125977" y="0.839844" width="65.387" height="65.387" rx="16" fill="#F9668D"/>
<path d="M31.6752 28.9969H33.9654V27.8625C33.9654 27.5617 34.086 27.2731 34.3008 27.0604C34.5155 26.8476 34.8068 26.7281 35.1105 26.7281H38.5459C38.8496 26.7281 39.1408 26.8476 39.3556 27.0604C39.5703 27.2731 39.691 27.5617 39.691 27.8625V28.9969H44.2714V24.4594C44.2714 23.256 43.7888 22.1018 42.9298 21.2509C42.0708 20.3999 40.9058 19.9219 39.691 19.9219H25.9496C24.7348 19.9219 23.5697 20.3999 22.7107 21.2509C21.8517 22.1018 21.3691 23.256 21.3691 24.4594V28.9969H25.9496V27.8625C25.9496 27.5617 26.0702 27.2731 26.285 27.0604C26.4997 26.8476 26.791 26.7281 27.0947 26.7281H30.5301C30.8338 26.7281 31.125 26.8476 31.3398 27.0604C31.5545 27.2731 31.6752 27.5617 31.6752 27.8625V28.9969Z" fill="white"/>
<path d="M22.5144 31.2656C20.9959 31.2656 19.5397 31.8632 18.466 32.9269C17.3923 33.9906 16.7891 35.4332 16.7891 36.9375V46.0125C16.7891 46.3134 16.9097 46.6019 17.1244 46.8146C17.3392 47.0274 17.6304 47.1469 17.9341 47.1469C18.2378 47.1469 18.5291 47.0274 18.7438 46.8146C18.9586 46.6019 19.0792 46.3134 19.0792 46.0125V40.3406H46.5608V46.0125C46.5608 46.3134 46.6814 46.6019 46.8961 46.8146C47.1109 47.0274 47.4021 47.1469 47.7058 47.1469C48.0095 47.1469 48.3008 47.0274 48.5155 46.8146C48.7303 46.6019 48.8509 46.3134 48.8509 46.0125V36.9375C48.8509 35.4332 48.2477 33.9906 47.174 32.9269C46.1003 31.8632 44.644 31.2656 43.1256 31.2656H22.5144Z" fill="white"/>
</svg>
