<svg width="36" height="47" viewBox="0 0 36 47" fill="none" xmlns="http://www.w3.org/2000/svg">
<path fill-rule="evenodd" clip-rule="evenodd" d="M35.0003 26.8159C35.1779 25.8325 35.2671 24.8357 35.2668 23.8371C35.2668 23.2222 35.2328 22.6434 35.1673 22.0912C35.1533 21.9714 33.1708 25.9461 29.999 28.4638C32.2055 26.5305 35.0837 21.4864 35.0431 21.2677C35.0082 21.0779 34.9688 20.889 34.9249 20.701C34.5457 19.074 33.8618 17.6277 32.9298 16.0555C32.641 19.3921 31.6317 22.9466 28.9836 26.0202C31.7319 22.7949 32.6881 15.4487 32.0332 14.437C29.3972 10.3951 23.8466 6.85742 17.9042 6.85742L17.8624 6.96409V6.86489C11.9198 6.86489 6.36962 10.4024 3.73362 14.4441C3.07854 15.4558 4.03474 22.8019 6.783 26.0273C4.13511 22.9536 3.12565 19.3992 2.83706 16.0626C1.90442 17.635 1.22091 19.0808 0.841696 20.708C0.79781 20.896 0.7584 21.085 0.723498 21.2748C0.682967 21.4935 3.56131 26.5376 5.76781 28.4709C2.59578 25.953 0.613364 21.9783 0.599147 22.0982C0.531661 22.6778 0.498573 23.2608 0.500047 23.8441C0.500047 24.8604 0.591295 25.8557 0.766364 26.8229C0.928276 27.7176 4.61491 30.1807 4.7104 30.2581C2.03259 29.235 0.927003 27.6258 1.02759 28.0145C2.92852 35.3756 9.74474 40.8236 17.8624 40.8236V40.8159L17.9042 40.8163C26.0219 40.8163 32.8381 35.3688 34.7388 28.0073C34.8396 27.6186 33.7342 29.2277 31.0562 30.2508C31.1515 30.1736 34.8381 27.7107 35.0003 26.8159V26.8159ZM23.5168 27.4696C23.3415 27.5441 23.1641 27.6082 22.9825 27.6563C21.3179 28.0998 19.0036 27.9369 17.9216 26.5546C16.8271 25.1563 17.1301 22.8881 17.981 21.4563C18.8402 20.0109 20.13 18.9368 21.2761 17.7203C21.8252 17.1399 22.3847 16.569 22.9543 16.0078C23.3239 15.6419 24.3327 14.8579 24.3119 14.3349C24.3024 14.0874 23.8423 13.6511 23.7144 13.4169C23.5278 13.0755 23.4113 12.7335 23.2117 12.4083C22.7699 11.6903 22.1767 11.3613 21.378 11.2073C20.3796 11.015 19.6634 11.1007 18.8364 11.6423C18.2142 12.0499 17.5666 12.8098 16.8067 12.8899C15.606 13.0165 10.3775 13.8643 10.1299 14.0174C10.7748 13.9707 18.6586 14.1199 19.5518 14.3349C20.602 14.5877 20.5544 15.4153 19.8414 16.0663C17.5991 18.1131 14.2959 19.3313 12.8877 22.1476C12.229 23.4644 11.8065 24.3559 11.8048 25.8959C11.8042 26.5305 11.8549 27.8327 12.6566 29.4498C12.6195 29.4259 11.3895 28.0073 11.3401 26.8072C8.37305 24.8668 6.86406 21.9652 6.86406 18.1891C6.86406 12.2035 11.7798 7.35091 17.8435 7.35091C23.9073 7.35091 28.8228 12.2033 28.8228 18.1891C28.8232 22.1252 27.1026 25.7662 23.5168 27.4696V27.4696Z" fill="#B4282E"/>
<path fill-rule="evenodd" clip-rule="evenodd" d="M18.3178 30.7578L16.8854 34.6068C16.0597 36.825 12.5549 36.3589 12.4316 36.3589C12.1437 36.3589 11.9234 36.3278 11.7031 36.1242L12.2277 35.5531C12.3527 35.6471 12.5483 35.7019 12.7482 35.7019C12.9116 35.7019 14.7124 36.0841 15.2493 34.6068L16.6817 30.7578H18.3178V30.7578ZM28.4327 35.5844L28.191 36.2338H23.263L25.301 30.7578H26.9547L25.158 35.5844H28.4327V35.5844ZM21.086 30.7715L16.7199 36.247H17.5678L18.673 34.7608H20.6507L20.3212 36.247H22.0632L23.4011 30.7715H21.086V30.7715ZM19.2485 33.9842L21.501 31.2885L20.8805 33.9842H19.2485V33.9842Z" fill="white"/>
</svg>
