<svg width="174" height="34" viewBox="0 0 174 34" fill="none" xmlns="http://www.w3.org/2000/svg">
<g clip-path="url(#clip0_1803_35035)">
<path d="M129.851 8.89887C131.214 8.89887 132.452 9.07226 133.564 9.41905C134.676 9.76583 135.615 10.2143 136.38 10.7643C136.858 11.0992 137.235 11.4699 137.51 11.8764C137.785 12.283 137.923 12.8092 137.923 13.4549V26.011L137.917 26.3524C137.877 27.476 137.64 28.4564 137.205 29.2935C136.727 30.2143 136.075 30.9796 135.25 31.5894C134.425 32.1993 133.456 32.6477 132.344 32.9347C131.232 33.2217 130.042 33.3652 128.775 33.3652C126.598 33.3652 124.888 33.0723 123.645 32.4863C122.401 31.9004 121.779 30.9497 121.779 29.6343C121.779 29.0842 121.893 28.5999 122.12 28.1814C122.347 27.7628 122.604 27.446 122.891 27.2307C123.585 27.6134 124.368 27.9362 125.241 28.1993C126.114 28.4624 127.017 28.5939 127.95 28.5939C129.241 28.5939 130.269 28.3787 131.035 27.9482C131.8 27.5177 132.183 26.8241 132.183 25.8675V25.2935L131.91 25.4056C130.983 25.7613 129.878 25.9392 128.595 25.9392C127.519 25.9392 126.497 25.7778 125.528 25.4549C124.559 25.132 123.71 24.6298 122.981 23.9482C122.251 23.2666 121.665 22.3877 121.223 21.3114C120.781 20.2352 120.559 18.9557 120.559 17.4729C120.559 16.014 120.793 14.7464 121.259 13.6702C121.725 12.5939 122.371 11.7031 123.196 10.9975C124.021 10.292 125.002 9.76583 126.138 9.41905C127.274 9.07226 128.512 8.89887 129.851 8.89887ZM33.2869 9.45579C35.4197 9.45579 37.165 9.93437 38.5227 10.8915C39.8804 11.8487 40.6841 13.5393 40.9338 15.9634H36.3769L36.3333 15.6953C36.2301 15.1666 36.0313 14.6838 35.737 14.2468C35.2377 13.5601 34.4626 13.2168 33.4118 13.2168C31.9136 13.2168 30.8888 13.9607 30.3374 15.4484C30.0461 16.2391 29.9004 17.2899 29.9004 18.6008C29.9004 19.8493 30.0461 20.8533 30.3374 21.6128C30.868 23.0277 31.8668 23.7352 33.3337 23.7352C34.3741 23.7352 35.1128 23.4543 35.5498 22.8925C35.9867 22.3306 36.252 21.6024 36.3457 20.7076H40.887L40.8561 21.0185C40.7054 22.2566 40.2267 23.4327 39.42 24.5467C38.0259 26.4922 35.9607 27.465 33.2245 27.465C30.4883 27.465 28.4751 26.6535 27.185 25.0305C25.8949 23.4075 25.2499 21.3007 25.2499 18.7101C25.2499 15.7866 25.9626 13.5133 27.3879 11.8903C28.8132 10.2673 30.7796 9.45579 33.2869 9.45579ZM74.6185 9.40897C76.0334 9.40897 77.3079 9.67427 78.4419 10.2049C79.5759 10.7355 80.5123 11.573 81.251 12.7174C81.9168 13.7266 82.3486 14.897 82.5462 16.2287C82.6607 17.009 82.7075 18.1327 82.6867 19.5996H71.0447L71.0606 19.8954C71.1718 21.4449 71.7023 22.5427 72.6521 23.189C73.2659 23.6155 74.0046 23.8288 74.8681 23.8288C75.7837 23.8288 76.5276 23.5687 77.0998 23.0485C77.4119 22.7676 77.6876 22.3775 77.9269 21.8781H82.4682L82.4345 22.1112C82.2705 23.045 81.7563 23.9921 80.892 24.9524C79.4355 26.6067 77.3963 27.4338 74.7745 27.4338C72.6105 27.4338 70.7014 26.7367 69.0471 25.3426C67.3929 23.9485 66.5658 21.6804 66.5658 18.5384C66.5658 15.5941 67.3123 13.3365 68.8053 11.7655C70.2982 10.1945 72.236 9.40897 74.6185 9.40897ZM105.848 3.15896C106.374 3.15896 106.846 3.19483 107.265 3.26658C107.683 3.33833 108.036 3.48183 108.323 3.69707C108.61 3.91232 108.831 4.20529 108.987 4.576C109.142 4.9467 109.22 5.431 109.22 6.02891V26.8361L109.099 26.8577C108.843 26.9031 108.495 26.9616 108.054 27.0334C107.54 27.1171 107.019 27.159 106.493 27.159C105.967 27.159 105.495 27.1231 105.076 27.0513C104.658 26.9796 104.305 26.8361 104.018 26.6208C103.731 26.4056 103.51 26.1126 103.354 25.7419C103.199 25.3712 103.121 24.8869 103.121 24.289V3.48183L103.242 3.46023C103.498 3.41484 103.846 3.35627 104.287 3.28452C104.801 3.20081 105.321 3.15896 105.848 3.15896ZM115.015 9.36523C115.541 9.36523 116.014 9.40111 116.432 9.47286C116.851 9.54461 117.203 9.6881 117.49 9.90335C117.777 10.1186 117.999 10.4116 118.154 10.7823C118.31 11.153 118.387 11.6373 118.387 12.2352V26.8361L118.267 26.8577C118.011 26.9031 117.662 26.9616 117.221 27.0334C116.707 27.1171 116.187 27.159 115.661 27.159C115.135 27.159 114.662 27.1231 114.244 27.0513C113.825 26.9796 113.473 26.8361 113.186 26.6208C112.899 26.4056 112.677 26.1126 112.522 25.7419C112.366 25.3712 112.289 24.8869 112.289 24.289V9.6881L112.409 9.66651C112.665 9.62111 113.014 9.56254 113.455 9.4908C113.969 9.40709 114.489 9.36523 115.015 9.36523ZM143.574 3.15896C144.101 3.15896 144.573 3.19483 144.991 3.26658C145.41 3.33833 145.763 3.48183 146.05 3.69707C146.337 3.91232 146.558 4.20529 146.713 4.576C146.869 4.9467 146.947 5.431 146.947 6.02891V9.54461L147.071 9.49892C147.378 9.39036 147.809 9.26807 148.364 9.13205C148.997 8.97659 149.697 8.89887 150.462 8.89887C152.83 8.89887 154.678 9.49079 156.005 10.6747C157.332 11.8585 157.996 13.6223 157.996 15.9661V26.8361L157.885 26.8668C157.646 26.9283 157.307 26.9898 156.866 27.0513C156.352 27.1231 155.82 27.159 155.27 27.159C154.743 27.159 154.271 27.1231 153.852 27.0513C153.434 26.9796 153.081 26.8361 152.794 26.6208C152.507 26.4056 152.286 26.1126 152.131 25.7419C151.975 25.3712 151.897 24.8869 151.897 24.289V16.3249L151.893 16.1038C151.858 15.2403 151.614 14.6264 151.162 14.2621C150.672 13.8675 150.068 13.6702 149.35 13.6702C148.872 13.6702 148.417 13.73 147.987 13.8495C147.557 13.9691 147.21 14.1126 146.947 14.28V26.8361L146.836 26.8668C146.597 26.9283 146.257 26.9898 145.817 27.0513C145.302 27.1231 144.77 27.159 144.22 27.159C143.694 27.159 143.222 27.1231 142.803 27.0513C142.385 26.9796 142.032 26.8361 141.745 26.6208C141.458 26.4056 141.237 26.1126 141.081 25.7419C140.926 25.3712 140.848 24.8869 140.848 24.289V3.48183L140.968 3.46023C141.225 3.41484 141.573 3.35627 142.014 3.28452C142.528 3.20081 143.048 3.15896 143.574 3.15896ZM100.626 5.13205L100.708 5.27106C100.843 5.51521 100.965 5.82164 101.075 6.19035C101.206 6.6328 101.272 7.09319 101.272 7.57151C101.272 8.50425 101.075 9.16793 100.68 9.56254C100.285 9.95716 99.7533 10.1545 99.0836 10.1545H91.55V14.2083H99.4065L99.4997 14.3468C99.6508 14.5893 99.7812 14.8899 99.8908 15.2486C100.022 15.6791 100.088 16.1335 100.088 16.6119C100.088 17.5207 99.8908 18.1724 99.4962 18.567C99.1016 18.9616 98.5694 19.159 97.8998 19.159H91.6217V26.7285L91.4998 26.7592C91.2377 26.8207 90.8658 26.8822 90.3841 26.9437C89.822 27.0155 89.266 27.0513 88.7159 27.0513C88.1658 27.0513 87.6815 27.0095 87.263 26.9258C86.8445 26.8421 86.4917 26.6926 86.2047 26.4773C85.9177 26.2621 85.7025 25.9631 85.559 25.5805C85.4155 25.1978 85.3437 24.6956 85.3437 24.0738V8.46837L85.3499 8.21576C85.3956 7.30594 85.6925 6.57699 86.2406 6.02891C86.8385 5.431 87.6516 5.13205 88.68 5.13205H100.626ZM16.3082 3.90009V7.94202H4.7754V13.2324H14.8724V17.2275H4.7754V26.872H0V3.90009H16.3082ZM22.8234 9.86154V26.872H18.3133V9.86154H22.8234ZM47.4022 3.94691V16.338L52.9423 9.93957H58.4512L52.5054 16.4472L58.6853 26.872H53.3169L49.2437 19.5996L47.4022 21.5191V26.872H43.0326V3.94691H47.4022ZM64.4827 3.86888V26.872H60.035V3.86888H64.4827ZM158.328 4.98452C159.074 4.76033 160.346 4.71046 161.836 5.36918C163.339 6.03415 164.277 7.17475 164.649 8.79095L172.721 9.47698C172.821 9.48277 172.92 9.50302 173.019 9.53773C173.167 9.58978 173.247 9.66302 173.314 9.72035C173.478 9.86092 173.531 9.96931 173.609 10.1634C173.748 10.5085 173.706 10.9147 173.525 11.1933C173.233 11.6423 172.777 11.9328 172.156 12.0649L165.639 13.45L166.79 18.8616C166.922 19.4828 167.213 19.8829 167.663 20.0619C168.113 20.2409 168.696 20.2543 169.413 20.1019C169.772 20.0257 170.136 19.9171 170.505 19.7761C170.875 19.6352 171.193 19.4864 171.459 19.3299C171.73 19.547 171.977 19.8003 172.201 20.0899C172.425 20.3794 172.585 20.7512 172.682 21.2051C173.038 22.8833 170.397 24.4687 168.666 24.7798C167.062 25.0679 164.602 25.3073 163.195 21.6226C161.789 17.9379 159.58 11.7615 157.894 6.61424C157.748 6.17005 157.658 5.73377 157.814 5.37377C157.899 5.17919 157.96 5.09519 158.328 4.98452ZM130.138 13.6702C128.966 13.6702 128.087 13.999 127.501 14.6567C126.915 15.3144 126.622 16.2531 126.622 17.4729C126.622 18.86 126.915 19.8585 127.501 20.4684C128.087 21.0782 128.834 21.3832 129.743 21.3832C130.724 21.3832 131.501 21.156 132.075 20.7016V14.1007L131.965 14.0433C131.806 13.9667 131.598 13.8902 131.34 13.8137C131.017 13.718 130.616 13.6702 130.138 13.6702ZM74.6185 13.0764C73.5885 13.0764 72.79 13.3989 72.2229 14.0439C71.6559 14.689 71.2996 15.5629 71.1539 16.6657H78.0674C77.9945 15.4901 77.6382 14.5979 76.9984 13.9893C76.3585 13.3807 75.5652 13.0764 74.6185 13.0764ZM22.8234 3.72842V7.83277H18.3133V3.72842H22.8234ZM115.338 1.36523C116.342 1.36523 117.15 1.67615 117.76 2.29797C118.369 2.91979 118.674 3.68511 118.674 4.59393C118.674 5.50275 118.369 6.26807 117.76 6.8899C117.15 7.51172 116.342 7.82263 115.338 7.82263C114.334 7.82263 113.526 7.51172 112.916 6.8899C112.307 6.26807 112.002 5.50275 112.002 4.59393C112.002 3.68511 112.307 2.91979 112.916 2.29797C113.526 1.67615 114.334 1.36523 115.338 1.36523Z" fill="white"/>
</g>
<defs>
<clipPath id="clip0_1803_35035">
<rect width="174" height="33" fill="white" transform="translate(0 0.839844)"/>
</clipPath>
</defs>
</svg>
