<svg width="174" height="34" viewBox="0 0 174 34" fill="none" xmlns="http://www.w3.org/2000/svg">
<g clip-path="url(#clip0_1803_34700)">
<path d="M129.851 8.88715C131.214 8.88715 132.452 9.06054 133.564 9.40733C134.676 9.75411 135.615 10.2025 136.38 10.7526C136.858 11.0874 137.235 11.4581 137.51 11.8647C137.785 12.2713 137.923 12.7975 137.923 13.4432V25.9993L137.917 26.3407C137.877 27.4643 137.64 28.4447 137.205 29.2818C136.727 30.2025 136.075 30.9679 135.25 31.5777C134.425 32.1876 133.456 32.636 132.344 32.923C131.232 33.21 130.042 33.3535 128.775 33.3535C126.598 33.3535 124.888 33.0605 123.645 32.4746C122.401 31.8886 121.779 30.938 121.779 29.6226C121.779 29.0725 121.893 28.5882 122.12 28.1697C122.347 27.7511 122.604 27.4342 122.891 27.219C123.585 27.6016 124.368 27.9245 125.241 28.1876C126.114 28.4507 127.017 28.5822 127.95 28.5822C129.241 28.5822 130.269 28.367 131.035 27.9365C131.8 27.506 132.183 26.8124 132.183 25.8558V25.2818L131.91 25.3938C130.983 25.7496 129.878 25.9275 128.595 25.9275C127.519 25.9275 126.497 25.7661 125.528 25.4432C124.559 25.1203 123.71 24.6181 122.981 23.9365C122.251 23.2549 121.665 22.3759 121.223 21.2997C120.781 20.2235 120.559 18.9439 120.559 17.4611C120.559 16.0022 120.793 14.7347 121.259 13.6584C121.725 12.5822 122.371 11.6913 123.196 10.9858C124.021 10.2803 125.002 9.75411 126.138 9.40733C127.274 9.06054 128.512 8.88715 129.851 8.88715ZM33.2869 9.44407C35.4197 9.44407 37.165 9.92265 38.5227 10.8798C39.8804 11.837 40.6841 13.5276 40.9338 15.9517H36.3769L36.3333 15.6836C36.2301 15.1549 36.0313 14.672 35.737 14.2351C35.2377 13.5484 34.4626 13.2051 33.4118 13.2051C31.9136 13.2051 30.8888 13.949 30.3374 15.4367C30.0461 16.2274 29.9004 17.2782 29.9004 18.5891C29.9004 19.8376 30.0461 20.8416 30.3374 21.6011C30.868 23.016 31.8668 23.7235 33.3337 23.7235C34.3741 23.7235 35.1128 23.4426 35.5498 22.8807C35.9867 22.3189 36.252 21.5907 36.3457 20.6959H40.887L40.8561 21.0067C40.7054 22.2449 40.2267 23.4209 39.42 24.535C38.0259 26.4805 35.9607 27.4533 33.2245 27.4533C30.4883 27.4533 28.4751 26.6418 27.185 25.0187C25.8949 23.3957 25.2499 21.2889 25.2499 18.6984C25.2499 15.7749 25.9626 13.5016 27.3879 11.8786C28.8132 10.2556 30.7796 9.44407 33.2869 9.44407ZM74.6185 9.39725C76.0334 9.39725 77.3079 9.66255 78.4419 10.1932C79.5759 10.7238 80.5123 11.5613 81.251 12.7057C81.9168 13.7149 82.3486 14.8853 82.5462 16.217C82.6607 16.9973 82.7075 18.1209 82.6867 19.5879H71.0447L71.0606 19.8837C71.1718 21.4331 71.7023 22.531 72.6521 23.1773C73.2659 23.6038 74.0046 23.8171 74.8681 23.8171C75.7837 23.8171 76.5276 23.557 77.0998 23.0368C77.4119 22.7559 77.6876 22.3657 77.9269 21.8664H82.4682L82.4345 22.0995C82.2705 23.0333 81.7563 23.9804 80.892 24.9407C79.4355 26.5949 77.3963 27.4221 74.7745 27.4221C72.6105 27.4221 70.7014 26.725 69.0471 25.3309C67.3929 23.9367 66.5658 21.6687 66.5658 18.5267C66.5658 15.5824 67.3123 13.3247 68.8053 11.7537C70.2982 10.1827 72.236 9.39725 74.6185 9.39725ZM105.848 3.14724C106.374 3.14724 106.846 3.18311 107.265 3.25486C107.683 3.32661 108.036 3.47011 108.323 3.68535C108.61 3.9006 108.831 4.19358 108.987 4.56428C109.142 4.93498 109.22 5.41929 109.22 6.01719V26.8244L109.099 26.846C108.843 26.8914 108.495 26.9499 108.054 27.0217C107.54 27.1054 107.019 27.1472 106.493 27.1472C105.967 27.1472 105.495 27.1114 105.076 27.0396C104.658 26.9679 104.305 26.8244 104.018 26.6091C103.731 26.3939 103.51 26.1009 103.354 25.7302C103.199 25.3595 103.121 24.8752 103.121 24.2773V3.47011L103.242 3.44851C103.498 3.40312 103.846 3.34455 104.287 3.2728C104.801 3.18909 105.321 3.14724 105.848 3.14724ZM115.015 9.35352C115.541 9.35352 116.014 9.38939 116.432 9.46114C116.851 9.53289 117.203 9.67639 117.49 9.89163C117.777 10.1069 117.999 10.3999 118.154 10.7706C118.31 11.1413 118.387 11.6256 118.387 12.2235V26.8244L118.267 26.846C118.011 26.8914 117.662 26.9499 117.221 27.0217C116.707 27.1054 116.187 27.1472 115.661 27.1472C115.135 27.1472 114.662 27.1114 114.244 27.0396C113.825 26.9679 113.473 26.8244 113.186 26.6091C112.899 26.3939 112.677 26.1009 112.522 25.7302C112.366 25.3595 112.289 24.8752 112.289 24.2773V9.67639L112.409 9.65479C112.665 9.6094 113.014 9.55083 113.455 9.47908C113.969 9.39537 114.489 9.35352 115.015 9.35352ZM143.574 3.14724C144.101 3.14724 144.573 3.18311 144.991 3.25486C145.41 3.32661 145.763 3.47011 146.05 3.68535C146.337 3.9006 146.558 4.19358 146.713 4.56428C146.869 4.93498 146.947 5.41929 146.947 6.01719V9.53289L147.071 9.4872C147.378 9.37865 147.809 9.25636 148.364 9.12033C148.997 8.96488 149.697 8.88715 150.462 8.88715C152.83 8.88715 154.678 9.47908 156.005 10.6629C157.332 11.8468 157.996 13.6106 157.996 15.9544V26.8244L157.885 26.8551C157.646 26.9166 157.307 26.9781 156.866 27.0396C156.352 27.1114 155.82 27.1472 155.27 27.1472C154.743 27.1472 154.271 27.1114 153.852 27.0396C153.434 26.9679 153.081 26.8244 152.794 26.6091C152.507 26.3939 152.286 26.1009 152.131 25.7302C151.975 25.3595 151.897 24.8752 151.897 24.2773V16.3132L151.893 16.0921C151.858 15.2285 151.614 14.6146 151.162 14.2504C150.672 13.8558 150.068 13.6584 149.35 13.6584C148.872 13.6584 148.417 13.7182 147.987 13.8378C147.557 13.9574 147.21 14.1009 146.947 14.2683V26.8244L146.836 26.8551C146.597 26.9166 146.257 26.9781 145.817 27.0396C145.302 27.1114 144.77 27.1472 144.22 27.1472C143.694 27.1472 143.222 27.1114 142.803 27.0396C142.385 26.9679 142.032 26.8244 141.745 26.6091C141.458 26.3939 141.237 26.1009 141.081 25.7302C140.926 25.3595 140.848 24.8752 140.848 24.2773V3.47011L140.968 3.44851C141.225 3.40312 141.573 3.34455 142.014 3.2728C142.528 3.18909 143.048 3.14724 143.574 3.14724ZM100.626 5.12033L100.708 5.25935C100.843 5.50349 100.965 5.80992 101.075 6.17863C101.206 6.62108 101.272 7.08147 101.272 7.55979C101.272 8.49253 101.075 9.15621 100.68 9.55083C100.285 9.94544 99.7533 10.1428 99.0836 10.1428H91.55V14.1966H99.4065L99.4997 14.3351C99.6508 14.5776 99.7812 14.8782 99.8908 15.2369C100.022 15.6674 100.088 16.1218 100.088 16.6002C100.088 17.509 99.8908 18.1607 99.4962 18.5553C99.1016 18.9499 98.5694 19.1472 97.8998 19.1472H91.6217V26.7167L91.4998 26.7475C91.2377 26.809 90.8658 26.8705 90.3841 26.932C89.822 27.0037 89.266 27.0396 88.7159 27.0396C88.1658 27.0396 87.6815 26.9978 87.263 26.9141C86.8445 26.8303 86.4917 26.6809 86.2047 26.4656C85.9177 26.2504 85.7025 25.9514 85.559 25.5688C85.4155 25.1861 85.3437 24.6839 85.3437 24.062V8.45665L85.3499 8.20404C85.3956 7.29422 85.6925 6.56527 86.2406 6.01719C86.8385 5.41929 87.6516 5.12033 88.68 5.12033H100.626ZM16.3082 3.88837V7.9303H4.7754V13.2207H14.8724V17.2158H4.7754V26.8602H0V3.88837H16.3082ZM22.8234 9.84982V26.8602H18.3133V9.84982H22.8234ZM47.4022 3.93519V16.3263L52.9423 9.92785H58.4512L52.5054 16.4355L58.6853 26.8602H53.3169L49.2437 19.5879L47.4022 21.5074V26.8602H43.0326V3.93519H47.4022ZM64.4827 3.85716V26.8602H60.035V3.85716H64.4827ZM158.328 4.9728C159.074 4.74861 160.346 4.69874 161.836 5.35746C163.339 6.02243 164.277 7.16303 164.649 8.77923L172.721 9.46526C172.821 9.47105 172.92 9.4913 173.019 9.52601C173.167 9.57807 173.247 9.6513 173.314 9.70863C173.478 9.8492 173.531 9.95759 173.609 10.1517C173.748 10.4968 173.706 10.903 173.525 11.1815C173.233 11.6306 172.777 11.9211 172.156 12.0532L165.639 13.4382L166.79 18.8498C166.922 19.471 167.213 19.8712 167.663 20.0502C168.113 20.2292 168.696 20.2425 169.413 20.0902C169.772 20.014 170.136 19.9054 170.505 19.7644C170.875 19.6234 171.193 19.4747 171.459 19.3182C171.73 19.5353 171.977 19.7886 172.201 20.0782C172.425 20.3677 172.585 20.7394 172.682 21.1934C173.038 22.8715 170.397 24.4569 168.666 24.7681C167.062 25.0562 164.602 25.2956 163.195 21.6109C161.789 17.9262 159.58 11.7497 157.894 6.60252C157.748 6.15833 157.658 5.72206 157.814 5.36205C157.899 5.16747 157.96 5.08347 158.328 4.9728ZM130.138 13.6584C128.966 13.6584 128.087 13.9873 127.501 14.645C126.915 15.3027 126.622 16.2414 126.622 17.4611C126.622 18.8483 126.915 19.8468 127.501 20.4567C128.087 21.0665 128.834 21.3715 129.743 21.3715C130.724 21.3715 131.501 21.1442 132.075 20.6898V14.0889L131.965 14.0315C131.806 13.955 131.598 13.8785 131.34 13.8019C131.017 13.7063 130.616 13.6584 130.138 13.6584ZM74.6185 13.0646C73.5885 13.0646 72.79 13.3872 72.2229 14.0322C71.6559 14.6772 71.2996 15.5512 71.1539 16.654H78.0674C77.9945 15.4783 77.6382 14.5862 76.9984 13.9776C76.3585 13.3689 75.5652 13.0646 74.6185 13.0646ZM22.8234 3.71671V7.82106H18.3133V3.71671H22.8234ZM115.338 1.35352C116.342 1.35352 117.15 1.66443 117.76 2.28625C118.369 2.90807 118.674 3.6734 118.674 4.58222C118.674 5.49103 118.369 6.25636 117.76 6.87818C117.15 7.5 116.342 7.81091 115.338 7.81091C114.334 7.81091 113.526 7.5 112.916 6.87818C112.307 6.25636 112.002 5.49103 112.002 4.58222C112.002 3.6734 112.307 2.90807 112.916 2.28625C113.526 1.66443 114.334 1.35352 115.338 1.35352Z" fill="white"/>
</g>
<defs>
<clipPath id="clip0_1803_34700">
<rect width="174" height="33" fill="white" transform="translate(0 0.828125)"/>
</clipPath>
</defs>
</svg>
