<svg width="174" height="34" viewBox="0 0 174 34" fill="none" xmlns="http://www.w3.org/2000/svg">
<g clip-path="url(#clip0_1803_35255)">
<path d="M129.851 8.2016C131.214 8.2016 132.452 8.37499 133.564 8.72178C134.676 9.06857 135.615 9.517 136.38 10.0671C136.858 10.4019 137.235 10.7726 137.51 11.1792C137.785 11.5858 137.923 12.1119 137.923 12.7577V25.3137L137.917 25.6551C137.877 26.7788 137.64 27.7591 137.205 28.5962C136.727 29.517 136.075 30.2823 135.25 30.8922C134.425 31.502 133.456 31.9505 132.344 32.2375C131.232 32.5245 130.042 32.668 128.775 32.668C126.598 32.668 124.888 32.375 123.645 31.789C122.401 31.2031 121.779 30.2524 121.779 28.937C121.779 28.387 121.893 27.9026 122.12 27.4841C122.347 27.0656 122.604 26.7487 122.891 26.5334C123.585 26.9161 124.368 27.239 125.241 27.5021C126.114 27.7651 127.017 27.8967 127.95 27.8967C129.241 27.8967 130.269 27.6814 131.035 27.2509C131.8 26.8204 132.183 26.1269 132.183 25.1702V24.5962L131.91 24.7083C130.983 25.0641 129.878 25.242 128.595 25.242C127.519 25.242 126.497 25.0805 125.528 24.7577C124.559 24.4348 123.71 23.9325 122.981 23.2509C122.251 22.5693 121.665 21.6904 121.223 20.6142C120.781 19.5379 120.559 18.2584 120.559 16.7756C120.559 15.3167 120.793 14.0491 121.259 12.9729C121.725 11.8967 122.371 11.0058 123.196 10.3003C124.021 9.59473 125.002 9.06857 126.138 8.72178C127.274 8.37499 128.512 8.2016 129.851 8.2016ZM33.2869 8.75852C35.4197 8.75852 37.165 9.2371 38.5227 10.1943C39.8804 11.1514 40.6841 12.8421 40.9338 15.2662H36.3769L36.3333 14.998C36.2301 14.4693 36.0313 13.9865 35.737 13.5495C35.2377 12.8629 34.4626 12.5195 33.4118 12.5195C31.9136 12.5195 30.8888 13.2634 30.3374 14.7512C30.0461 15.5419 29.9004 16.5927 29.9004 17.9036C29.9004 19.152 30.0461 20.156 30.3374 20.9155C30.868 22.3304 31.8668 23.0379 33.3337 23.0379C34.3741 23.0379 35.1128 22.757 35.5498 22.1952C35.9867 21.6334 36.252 20.9051 36.3457 20.0104H40.887L40.8561 20.3212C40.7054 21.5593 40.2267 22.7354 39.42 23.8494C38.0259 25.795 35.9607 26.7677 33.2245 26.7677C30.4883 26.7677 28.4751 25.9562 27.185 24.3332C25.8949 22.7102 25.2499 20.6034 25.2499 18.0128C25.2499 15.0893 25.9626 12.8161 27.3879 11.193C28.8132 9.57003 30.7796 8.75852 33.2869 8.75852ZM74.6185 8.7117C76.0334 8.7117 77.3079 8.977 78.4419 9.5076C79.5759 10.0382 80.5123 10.8757 81.251 12.0202C81.9168 13.0293 82.3486 14.1998 82.5462 15.5315C82.6607 16.3118 82.7075 17.4354 82.6867 18.9023H71.0447L71.0606 19.1982C71.1718 20.7476 71.7023 21.8454 72.6521 22.4917C73.2659 22.9183 74.0046 23.1315 74.8681 23.1315C75.7837 23.1315 76.5276 22.8714 77.0998 22.3513C77.4119 22.0703 77.6876 21.6802 77.9269 21.1808H82.4682L82.4345 21.414C82.2705 22.3477 81.7563 23.2948 80.892 24.2552C79.4355 25.9094 77.3963 26.7365 74.7745 26.7365C72.6105 26.7365 70.7014 26.0394 69.0471 24.6453C67.3929 23.2512 66.5658 20.9831 66.5658 17.8412C66.5658 14.8968 67.3123 12.6392 68.8053 11.0682C70.2982 9.4972 72.236 8.7117 74.6185 8.7117ZM105.848 2.46169C106.374 2.46169 106.846 2.49757 107.265 2.56931C107.683 2.64106 108.036 2.78456 108.323 2.99981C108.61 3.21505 108.831 3.50803 108.987 3.87873C109.142 4.24943 109.22 4.73374 109.22 5.33165V26.1388L109.099 26.1604C108.843 26.2058 108.495 26.2644 108.054 26.3361C107.54 26.4198 107.019 26.4617 106.493 26.4617C105.967 26.4617 105.495 26.4258 105.076 26.3541C104.658 26.2823 104.305 26.1388 104.018 25.9236C103.731 25.7083 103.51 25.4154 103.354 25.0447C103.199 24.6739 103.121 24.1896 103.121 23.5917V2.78456L103.242 2.76296C103.498 2.71757 103.846 2.659 104.287 2.58725C104.801 2.50354 105.321 2.46169 105.848 2.46169ZM115.015 8.66797C115.541 8.66797 116.014 8.70384 116.432 8.77559C116.851 8.84734 117.203 8.99084 117.49 9.20609C117.777 9.42133 117.999 9.71431 118.154 10.085C118.31 10.4557 118.387 10.94 118.387 11.5379V26.1388L118.267 26.1604C118.011 26.2058 117.662 26.2644 117.221 26.3361C116.707 26.4198 116.187 26.4617 115.661 26.4617C115.135 26.4617 114.662 26.4258 114.244 26.3541C113.825 26.2823 113.473 26.1388 113.186 25.9236C112.899 25.7083 112.677 25.4154 112.522 25.0447C112.366 24.6739 112.289 24.1896 112.289 23.5917V8.99084L112.409 8.96924C112.665 8.92385 113.014 8.86528 113.455 8.79353C113.969 8.70982 114.489 8.66797 115.015 8.66797ZM143.574 2.46169C144.101 2.46169 144.573 2.49757 144.991 2.56931C145.41 2.64106 145.763 2.78456 146.05 2.99981C146.337 3.21505 146.558 3.50803 146.713 3.87873C146.869 4.24943 146.947 4.73374 146.947 5.33165V8.84734L147.071 8.80166C147.378 8.6931 147.809 8.57081 148.364 8.43478C148.997 8.27933 149.697 8.2016 150.462 8.2016C152.83 8.2016 154.678 8.79353 156.005 9.97739C157.332 11.1612 157.996 12.9251 157.996 15.2689V26.1388L157.885 26.1696C157.646 26.2311 157.307 26.2926 156.866 26.3541C156.352 26.4258 155.82 26.4617 155.27 26.4617C154.743 26.4617 154.271 26.4258 153.852 26.3541C153.434 26.2823 153.081 26.1388 152.794 25.9236C152.507 25.7083 152.286 25.4154 152.131 25.0447C151.975 24.6739 151.897 24.1896 151.897 23.5917V15.6276L151.893 15.4065C151.858 14.543 151.614 13.9291 151.162 13.5648C150.672 13.1702 150.068 12.9729 149.35 12.9729C148.872 12.9729 148.417 13.0327 147.987 13.1523C147.557 13.2719 147.21 13.4154 146.947 13.5828V26.1388L146.836 26.1696C146.597 26.2311 146.257 26.2926 145.817 26.3541C145.302 26.4258 144.77 26.4617 144.22 26.4617C143.694 26.4617 143.222 26.4258 142.803 26.3541C142.385 26.2823 142.032 26.1388 141.745 25.9236C141.458 25.7083 141.237 25.4154 141.081 25.0447C140.926 24.6739 140.848 24.1896 140.848 23.5917V2.78456L140.968 2.76296C141.225 2.71757 141.573 2.659 142.014 2.58725C142.528 2.50354 143.048 2.46169 143.574 2.46169ZM100.626 4.43478L100.708 4.5738C100.843 4.81794 100.965 5.12437 101.075 5.49308C101.206 5.93553 101.272 6.39592 101.272 6.87425C101.272 7.80698 101.075 8.47066 100.68 8.86528C100.285 9.2599 99.7533 9.45721 99.0836 9.45721H91.55V13.511H99.4065L99.4997 13.6495C99.6508 13.892 99.7812 14.1926 99.8908 14.5514C100.022 14.9819 100.088 15.4363 100.088 15.9146C100.088 16.8234 99.8908 17.4751 99.4962 17.8698C99.1016 18.2644 98.5694 18.4617 97.8998 18.4617H91.6217V26.0312L91.4998 26.0619C91.2377 26.1234 90.8658 26.1849 90.3841 26.2464C89.822 26.3182 89.266 26.3541 88.7159 26.3541C88.1658 26.3541 87.6815 26.3122 87.263 26.2285C86.8445 26.1448 86.4917 25.9953 86.2047 25.7801C85.9177 25.5648 85.7025 25.2659 85.559 24.8832C85.4155 24.5006 85.3437 23.9983 85.3437 23.3765V7.77111L85.3499 7.51849C85.3956 6.60868 85.6925 5.87973 86.2406 5.33165C86.8385 4.73374 87.6516 4.43478 88.68 4.43478H100.626ZM16.3082 3.20282V7.24475H4.7754V12.5351H14.8724V16.5303H4.7754V26.1747H0V3.20282H16.3082ZM22.8234 9.16427V26.1747H18.3133V9.16427H22.8234ZM47.4022 3.24964V15.6407L52.9423 9.2423H58.4512L52.5054 15.75L58.6853 26.1747H53.3169L49.2437 18.9023L47.4022 20.8219V26.1747H43.0326V3.24964H47.4022ZM64.4827 3.17161V26.1747H60.035V3.17161H64.4827ZM158.328 4.28725C159.074 4.06306 160.346 4.01319 161.836 4.67191C163.339 5.33689 164.277 6.47748 164.649 8.09369L172.721 8.77971C172.821 8.78551 172.92 8.80576 173.019 8.84046C173.167 8.89252 173.247 8.96575 173.314 9.02309C173.478 9.16366 173.531 9.27205 173.609 9.46614C173.748 9.81126 173.706 10.2175 173.525 10.496C173.233 10.945 172.777 11.2356 172.156 11.3676L165.639 12.7527L166.79 18.1643C166.922 18.7855 167.213 19.1856 167.663 19.3646C168.113 19.5437 168.696 19.557 169.413 19.4046C169.772 19.3285 170.136 19.2199 170.505 19.0789C170.875 18.9379 171.193 18.7891 171.459 18.6326C171.73 18.8497 171.977 19.1031 172.201 19.3926C172.425 19.6821 172.585 20.0539 172.682 20.5078C173.038 22.186 170.397 23.7714 168.666 24.0825C167.062 24.3707 164.602 24.6101 163.195 20.9253C161.789 17.2406 159.58 11.0642 157.894 5.91697C157.748 5.47278 157.658 5.03651 157.814 4.6765C157.899 4.48192 157.96 4.39793 158.328 4.28725ZM130.138 12.9729C128.966 12.9729 128.087 13.3018 127.501 13.9594C126.915 14.6171 126.622 15.5559 126.622 16.7756C126.622 18.1627 126.915 19.1612 127.501 19.7711C128.087 20.381 128.834 20.6859 129.743 20.6859C130.724 20.6859 131.501 20.4587 132.075 20.0043V13.4034L131.965 13.346C131.806 13.2695 131.598 13.1929 131.34 13.1164C131.017 13.0207 130.616 12.9729 130.138 12.9729ZM74.6185 12.3791C73.5885 12.3791 72.79 12.7016 72.2229 13.3467C71.6559 13.9917 71.2996 14.8656 71.1539 15.9684H78.0674C77.9945 14.7928 77.6382 13.9007 76.9984 13.292C76.3585 12.6834 75.5652 12.3791 74.6185 12.3791ZM22.8234 3.03116V7.13551H18.3133V3.03116H22.8234ZM115.338 0.667969C116.342 0.667969 117.15 0.978881 117.76 1.6007C118.369 2.22253 118.674 2.98785 118.674 3.89667C118.674 4.80549 118.369 5.57081 117.76 6.19263C117.15 6.81446 116.342 7.12537 115.338 7.12537C114.334 7.12537 113.526 6.81446 112.916 6.19263C112.307 5.57081 112.002 4.80549 112.002 3.89667C112.002 2.98785 112.307 2.22253 112.916 1.6007C113.526 0.978881 114.334 0.667969 115.338 0.667969Z" fill="white"/>
</g>
<defs>
<clipPath id="clip0_1803_35255">
<rect width="174" height="33" fill="white" transform="translate(0 0.142578)"/>
</clipPath>
</defs>
</svg>
