<svg width="24" height="25" viewBox="0 0 24 25" fill="none" xmlns="http://www.w3.org/2000/svg">
<path d="M21.6732 18.8934C21.0303 18.3203 20.4675 17.6633 19.9999 16.9401C19.4894 15.9418 19.1834 14.8516 19.0999 13.7334V10.4401C19.1043 8.68385 18.4672 6.98642 17.3084 5.66675C16.1495 4.34708 14.5486 3.49601 12.8065 3.27344V2.41344C12.8065 2.17739 12.7128 1.95102 12.5459 1.78411C12.379 1.61721 12.1526 1.52344 11.9165 1.52344C11.6805 1.52344 11.4541 1.61721 11.2872 1.78411C11.1203 1.95102 11.0265 2.17739 11.0265 2.41344V3.28677C9.30004 3.52539 7.71852 4.38161 6.57489 5.69684C5.43126 7.01208 4.80302 8.6972 4.80654 10.4401V13.7334C4.72304 14.8516 4.41705 15.9418 3.90654 16.9401C3.44712 17.6617 2.89333 18.3186 2.25987 18.8934C2.18876 18.9559 2.13176 19.0328 2.09268 19.119C2.0536 19.2052 2.03332 19.2988 2.0332 19.3934V20.3001C2.0332 20.4769 2.10344 20.6465 2.22847 20.7715C2.35349 20.8965 2.52306 20.9668 2.69987 20.9668H21.2332C21.41 20.9668 21.5796 20.8965 21.7046 20.7715C21.8296 20.6465 21.8999 20.4769 21.8999 20.3001V19.3934C21.8997 19.2988 21.8795 19.2052 21.8404 19.119C21.8013 19.0328 21.7443 18.9559 21.6732 18.8934ZM3.41987 19.6334C4.04014 19.0342 4.58627 18.3628 5.04654 17.6334C5.68961 16.4278 6.06482 15.0975 6.14654 13.7334V10.4401C6.1201 9.6588 6.25115 8.88015 6.5319 8.15055C6.81265 7.42094 7.23734 6.75529 7.7807 6.19324C8.32406 5.63118 8.97496 5.18422 9.69466 4.87895C10.4143 4.57369 11.1881 4.41638 11.9699 4.41638C12.7516 4.41638 13.5254 4.57369 14.2451 4.87895C14.9648 5.18422 15.6157 5.63118 16.159 6.19324C16.7024 6.75529 17.1271 7.42094 17.4078 8.15055C17.6886 8.88015 17.8196 9.6588 17.7932 10.4401V13.7334C17.8749 15.0975 18.2501 16.4278 18.8932 17.6334C19.3535 18.3628 19.8996 19.0342 20.5199 19.6334H3.41987Z" fill="#424242"/>
<path d="M11.9996 23.1528C12.4195 23.1431 12.8225 22.9853 13.1373 22.7071C13.4521 22.4289 13.6583 22.0484 13.7196 21.6328H10.2129C10.2759 22.0597 10.4918 22.4492 10.8204 22.7288C11.1491 23.0084 11.5681 23.159 11.9996 23.1528V23.1528Z" fill="#424242"/>
<circle cx="18.457" cy="5.77734" r="3.5" fill="#F99A0E" stroke="white"/>
</svg>
