<svg width="36" height="47" viewBox="0 0 36 47" fill="none" xmlns="http://www.w3.org/2000/svg">
<path d="M11.3813 42.9643H8.03605L14.7948 32.7844C14.7948 32.7844 15.8047 30.6762 14.4845 28.4475L5.06428 13.5592C5.06428 13.5592 4.2385 12.1788 5.06428 10.8536L7.85195 6.87305L18.908 24.1105C18.908 24.1105 21.7588 27.7196 18.6608 32.1921L11.3813 42.9643Z" fill="#FCB130"/>
<path d="M19.4612 39.8425L23.5691 33.8691C23.5691 33.8691 24.7683 31.4044 27.8663 31.4044H32.2266L35.2668 35.9773C35.2668 35.9773 32.8683 35.7414 31.7953 37.3728L27.314 43.823C27.314 43.823 25.8518 46.8398 21.9438 46.8398H0.831111L8.86277 35.0738C8.86277 35.0738 9.99888 33.6934 8.41043 31.4044L1.26241 20.4415C1.26241 20.4415 -0.494349 18.8202 1.32553 16.0443L3.41365 13.0275L13.3441 28.3927C13.3441 28.3927 15.1008 30.5009 13.3441 33.0308L5.88574 44.1292H21.6124C21.6124 44.1292 23.385 44.4405 24.9103 42.272L28.8183 36.5345C28.8183 36.5345 29.7072 34.602 31.6691 33.8139H28.508C28.508 33.8139 26.8564 33.8741 25.5993 35.7464L22.1279 40.8715C22.1279 40.8715 20.8655 43.04 18.0779 43.04H12.5814L19.214 33.2165C19.214 33.2165 22.8274 28.6838 20.287 24.5225L9.29407 7.16961C9.29407 7.16961 8.46829 5.66874 9.4203 4.27328L11.8188 0.839844L24.337 20.0801C24.337 20.0801 26.1726 22.9614 26.1726 25.1901C26.1726 27.4188 24.7104 29.9437 23.9004 31.2237L18.3882 39.4258C18.3882 39.4258 17.7675 40.2139 18.2041 40.5101C18.6512 40.8062 19.0877 40.2741 19.4612 39.8425" fill="#FCB130"/>
</svg>
