<svg width="130" height="31" viewBox="0 0 130 31" fill="none" xmlns="http://www.w3.org/2000/svg">
<g clip-path="url(#clip0_1803_35038)">
<path d="M14.9996 1.43945C7.04661 1.43945 0.599609 7.88645 0.599609 15.8395C0.599609 23.7925 7.04661 30.2395 14.9996 30.2395C22.9526 30.2395 29.3996 23.7925 29.3996 15.8395C29.3996 7.88645 22.9526 1.43945 14.9996 1.43945ZM18.4106 11.3905H16.2461C15.9896 11.3905 15.7046 11.728 15.7046 12.1765V13.7395H18.4121L18.0026 15.9685H15.7046V22.66H13.1501V15.9685H10.8326V13.7395H13.1501V12.4285C13.1501 10.5475 14.4551 9.01895 16.2461 9.01895H18.4106V11.3905V11.3905Z" fill="white"/>
</g>
<g clip-path="url(#clip1_1803_35038)">
<path d="M115 1.43945C107.047 1.43945 100.6 7.88645 100.6 15.8395C100.6 23.7925 107.047 30.2395 115 30.2395C122.953 30.2395 129.4 23.7925 129.4 15.8395C129.4 7.88645 122.953 1.43945 115 1.43945ZM120.857 13.2355C120.863 13.3585 120.865 13.4815 120.865 13.6015C120.865 17.3515 118.013 21.673 112.796 21.673C111.255 21.6755 109.745 21.2328 108.449 20.398C108.67 20.425 108.896 20.4355 109.126 20.4355C110.455 20.4355 111.677 19.984 112.648 19.222C112.056 19.2103 111.483 19.0145 111.008 18.6617C110.533 18.309 110.18 17.8168 109.999 17.254C110.423 17.3347 110.861 17.3178 111.278 17.2045C110.636 17.0746 110.059 16.7268 109.644 16.2199C109.229 15.7131 109.003 15.0784 109.003 14.4235V14.389C109.385 14.6005 109.823 14.7295 110.288 14.7445C109.686 14.3438 109.26 13.7285 109.097 13.0242C108.934 12.3198 109.046 11.5798 109.411 10.9555C110.123 11.8315 111.012 12.5481 112.018 13.0589C113.025 13.5698 114.128 13.8634 115.256 13.921C115.113 13.3124 115.174 12.6736 115.432 12.1037C115.689 11.5339 116.127 11.0649 116.678 10.7698C117.229 10.4748 117.863 10.37 118.479 10.472C119.096 10.5739 119.662 10.8767 120.089 11.3335C120.724 11.2079 121.333 10.975 121.889 10.645C121.678 11.3022 121.235 11.8602 120.643 12.2155C121.205 12.1477 121.754 11.9966 122.272 11.767C121.891 12.3368 121.412 12.8341 120.857 13.2355V13.2355Z" fill="white"/>
</g>
<g clip-path="url(#clip2_1803_35038)">
<path d="M69.4996 15.8395C69.4996 17.0329 69.0255 18.1775 68.1816 19.0214C67.3377 19.8653 66.1931 20.3395 64.9996 20.3395C63.8061 20.3395 62.6615 19.8653 61.8176 19.0214C60.9737 18.1775 60.4996 17.0329 60.4996 15.8395C60.4996 15.583 60.5266 15.3325 60.5731 15.0895H58.9996V21.085C58.9996 21.502 59.3371 21.8395 59.7541 21.8395H70.2466C70.4465 21.8391 70.638 21.7594 70.7792 21.6179C70.9203 21.4765 70.9996 21.2848 70.9996 21.085V15.0895H69.4261C69.4726 15.3325 69.4996 15.583 69.4996 15.8395V15.8395ZM64.9996 18.8395C65.3937 18.8394 65.7839 18.7616 66.1479 18.6107C66.5119 18.4599 66.8427 18.2387 67.1212 17.96C67.3998 17.6813 67.6208 17.3505 67.7715 16.9863C67.9222 16.6222 67.9997 16.232 67.9996 15.838C67.9995 15.4439 67.9218 15.0537 67.7709 14.6897C67.62 14.3256 67.3989 13.9949 67.1202 13.7163C66.8415 13.4377 66.5106 13.2168 66.1465 13.0661C65.7824 12.9154 65.3922 12.8379 64.9981 12.838C64.2023 12.8382 63.4391 13.1545 62.8765 13.7174C62.3139 14.2803 61.9979 15.0436 61.9981 15.8395C61.9983 16.6353 62.3147 17.3985 62.8775 17.9611C63.4404 18.5237 64.2038 18.8397 64.9996 18.8395V18.8395ZM68.5996 12.6895H70.3981C70.5176 12.6895 70.6322 12.6421 70.7168 12.5577C70.8015 12.4734 70.8492 12.3589 70.8496 12.2395V10.441C70.8496 10.3212 70.802 10.2064 70.7174 10.1217C70.6327 10.037 70.5179 9.98945 70.3981 9.98945H68.5996C68.4799 9.98945 68.365 10.037 68.2804 10.1217C68.1957 10.2064 68.1481 10.3212 68.1481 10.441V12.2395C68.1496 12.487 68.3521 12.6895 68.5996 12.6895V12.6895ZM64.9996 1.43945C61.1805 1.43945 57.5178 2.95659 54.8173 5.65712C52.1167 8.35764 50.5996 12.0203 50.5996 15.8395C50.5996 19.6586 52.1167 23.3213 54.8173 26.0218C57.5178 28.7223 61.1805 30.2395 64.9996 30.2395C66.8906 30.2395 68.7632 29.867 70.5103 29.1433C72.2573 28.4197 73.8448 27.359 75.182 26.0218C76.5191 24.6846 77.5798 23.0972 78.3035 21.3501C79.0271 19.603 79.3996 17.7305 79.3996 15.8395C79.3996 13.9484 79.0271 12.0759 78.3035 10.3288C77.5798 8.58172 76.5191 6.99428 75.182 5.65712C73.8448 4.31995 72.2573 3.25926 70.5103 2.53559C68.7632 1.81192 66.8906 1.43945 64.9996 1.43945V1.43945ZM72.4996 21.673C72.4996 22.5895 71.7496 23.3395 70.8331 23.3395H59.1661C58.2496 23.3395 57.4996 22.5895 57.4996 21.673V10.006C57.4996 9.08945 58.2496 8.33945 59.1661 8.33945H70.8331C71.7496 8.33945 72.4996 9.08945 72.4996 10.006V21.673V21.673Z" fill="white"/>
</g>
<defs>
<clipPath id="clip0_1803_35038">
<rect width="30" height="30" fill="white" transform="translate(0 0.839844)"/>
</clipPath>
<clipPath id="clip1_1803_35038">
<rect width="30" height="30" fill="white" transform="translate(100 0.839844)"/>
</clipPath>
<clipPath id="clip2_1803_35038">
<rect width="30" height="30" fill="white" transform="translate(50 0.839844)"/>
</clipPath>
</defs>
</svg>
