<svg width="130" height="31" viewBox="0 0 130 31" fill="none" xmlns="http://www.w3.org/2000/svg">
<g clip-path="url(#clip0_1803_34706)">
<path d="M14.9996 1.42773C7.04661 1.42773 0.599609 7.87473 0.599609 15.8277C0.599609 23.7807 7.04661 30.2277 14.9996 30.2277C22.9526 30.2277 29.3996 23.7807 29.3996 15.8277C29.3996 7.87473 22.9526 1.42773 14.9996 1.42773ZM18.4106 11.3787H16.2461C15.9896 11.3787 15.7046 11.7162 15.7046 12.1647V13.7277H18.4121L18.0026 15.9567H15.7046V22.6482H13.1501V15.9567H10.8326V13.7277H13.1501V12.4167C13.1501 10.5357 14.4551 9.00723 16.2461 9.00723H18.4106V11.3787V11.3787Z" fill="white"/>
</g>
<g clip-path="url(#clip1_1803_34706)">
<path d="M115 1.42773C107.047 1.42773 100.6 7.87473 100.6 15.8277C100.6 23.7807 107.047 30.2277 115 30.2277C122.953 30.2277 129.4 23.7807 129.4 15.8277C129.4 7.87473 122.953 1.42773 115 1.42773ZM120.857 13.2237C120.863 13.3467 120.865 13.4697 120.865 13.5897C120.865 17.3397 118.013 21.6612 112.796 21.6612C111.255 21.6638 109.745 21.2211 108.449 20.3862C108.67 20.4132 108.896 20.4237 109.126 20.4237C110.455 20.4237 111.677 19.9722 112.648 19.2102C112.056 19.1986 111.483 19.0028 111.008 18.65C110.533 18.2972 110.18 17.8051 109.999 17.2422C110.423 17.323 110.861 17.3061 111.278 17.1927C110.636 17.0629 110.059 16.7151 109.644 16.2082C109.229 15.7014 109.003 15.0667 109.003 14.4117V14.3772C109.385 14.5887 109.823 14.7177 110.288 14.7327C109.686 14.3321 109.26 13.7167 109.097 13.0124C108.934 12.3081 109.046 11.5681 109.411 10.9437C110.123 11.8197 111.012 12.5364 112.018 13.0472C113.025 13.558 114.128 13.8517 115.256 13.9092C115.113 13.3007 115.174 12.6618 115.432 12.092C115.689 11.5221 116.127 11.0532 116.678 10.7581C117.229 10.463 117.863 10.3583 118.479 10.4602C119.096 10.5622 119.662 10.865 120.089 11.3217C120.724 11.1961 121.333 10.9633 121.889 10.6332C121.678 11.2904 121.235 11.8485 120.643 12.2037C121.205 12.136 121.754 11.9849 122.272 11.7552C121.891 12.3251 121.412 12.8224 120.857 13.2237V13.2237Z" fill="white"/>
</g>
<g clip-path="url(#clip2_1803_34706)">
<path d="M69.4996 15.8277C69.4996 17.0212 69.0255 18.1658 68.1816 19.0097C67.3377 19.8536 66.1931 20.3277 64.9996 20.3277C63.8061 20.3277 62.6615 19.8536 61.8176 19.0097C60.9737 18.1658 60.4996 17.0212 60.4996 15.8277C60.4996 15.5712 60.5266 15.3207 60.5731 15.0777H58.9996V21.0732C58.9996 21.4902 59.3371 21.8277 59.7541 21.8277H70.2466C70.4465 21.8273 70.638 21.7477 70.7792 21.6062C70.9203 21.4648 70.9996 21.2731 70.9996 21.0732V15.0777H69.4261C69.4726 15.3207 69.4996 15.5712 69.4996 15.8277V15.8277ZM64.9996 18.8277C65.3937 18.8276 65.7839 18.7499 66.1479 18.599C66.5119 18.4481 66.8427 18.227 67.1212 17.9483C67.3998 17.6696 67.6208 17.3387 67.7715 16.9746C67.9222 16.6105 67.9997 16.2203 67.9996 15.8262C67.9995 15.4322 67.9218 15.042 67.7709 14.678C67.62 14.3139 67.3989 13.9832 67.1202 13.7046C66.8415 13.426 66.5106 13.2051 66.1465 13.0544C65.7824 12.9037 65.3922 12.8261 64.9981 12.8262C64.2023 12.8264 63.4391 13.1428 62.8765 13.7057C62.3139 14.2686 61.9979 15.0319 61.9981 15.8277C61.9983 16.6236 62.3147 17.3868 62.8775 17.9494C63.4404 18.512 64.2038 18.8279 64.9996 18.8277V18.8277ZM68.5996 12.6777H70.3981C70.5176 12.6777 70.6322 12.6304 70.7168 12.546C70.8015 12.4617 70.8492 12.3472 70.8496 12.2277V10.4292C70.8496 10.3095 70.802 10.1946 70.7174 10.11C70.6327 10.0253 70.5179 9.97773 70.3981 9.97773H68.5996C68.4799 9.97773 68.365 10.0253 68.2804 10.11C68.1957 10.1946 68.1481 10.3095 68.1481 10.4292V12.2277C68.1496 12.4752 68.3521 12.6777 68.5996 12.6777V12.6777ZM64.9996 1.42773C61.1805 1.42773 57.5178 2.94487 54.8173 5.6454C52.1167 8.34592 50.5996 12.0086 50.5996 15.8277C50.5996 19.6469 52.1167 23.3095 54.8173 26.0101C57.5178 28.7106 61.1805 30.2277 64.9996 30.2277C66.8906 30.2277 68.7632 29.8553 70.5103 29.1316C72.2573 28.4079 73.8448 27.3472 75.182 26.0101C76.5191 24.6729 77.5798 23.0855 78.3035 21.3384C79.0271 19.5913 79.3996 17.7188 79.3996 15.8277C79.3996 13.9367 79.0271 12.0642 78.3035 10.3171C77.5798 8.57 76.5191 6.98256 75.182 5.6454C73.8448 4.30823 72.2573 3.24754 70.5103 2.52387C68.7632 1.8002 66.8906 1.42773 64.9996 1.42773V1.42773ZM72.4996 21.6612C72.4996 22.5777 71.7496 23.3277 70.8331 23.3277H59.1661C58.2496 23.3277 57.4996 22.5777 57.4996 21.6612V9.99423C57.4996 9.07773 58.2496 8.32773 59.1661 8.32773H70.8331C71.7496 8.32773 72.4996 9.07773 72.4996 9.99423V21.6612V21.6612Z" fill="white"/>
</g>
<defs>
<clipPath id="clip0_1803_34706">
<rect width="30" height="30" fill="white" transform="translate(0 0.828125)"/>
</clipPath>
<clipPath id="clip1_1803_34706">
<rect width="30" height="30" fill="white" transform="translate(100 0.828125)"/>
</clipPath>
<clipPath id="clip2_1803_34706">
<rect width="30" height="30" fill="white" transform="translate(50 0.828125)"/>
</clipPath>
</defs>
</svg>
