<svg width="130" height="31" viewBox="0 0 130 31" fill="none" xmlns="http://www.w3.org/2000/svg">
<g clip-path="url(#clip0_1803_35258)">
<path d="M14.9996 0.742188C7.04661 0.742188 0.599609 7.18919 0.599609 15.1422C0.599609 23.0952 7.04661 29.5422 14.9996 29.5422C22.9526 29.5422 29.3996 23.0952 29.3996 15.1422C29.3996 7.18919 22.9526 0.742188 14.9996 0.742188ZM18.4106 10.6932H16.2461C15.9896 10.6932 15.7046 11.0307 15.7046 11.4792V13.0422H18.4121L18.0026 15.2712H15.7046V21.9627H13.1501V15.2712H10.8326V13.0422H13.1501V11.7312C13.1501 9.85019 14.4551 8.32169 16.2461 8.32169H18.4106V10.6932V10.6932Z" fill="white"/>
</g>
<g clip-path="url(#clip1_1803_35258)">
<path d="M115 0.742188C107.047 0.742188 100.6 7.18919 100.6 15.1422C100.6 23.0952 107.047 29.5422 115 29.5422C122.953 29.5422 129.4 23.0952 129.4 15.1422C129.4 7.18919 122.953 0.742188 115 0.742188ZM120.857 12.5382C120.863 12.6612 120.865 12.7842 120.865 12.9042C120.865 16.6542 118.013 20.9757 112.796 20.9757C111.255 20.9783 109.745 20.5355 108.449 19.7007C108.67 19.7277 108.896 19.7382 109.126 19.7382C110.455 19.7382 111.677 19.2867 112.648 18.5247C112.056 18.5131 111.483 18.3172 111.008 17.9645C110.533 17.6117 110.18 17.1196 109.999 16.5567C110.423 16.6375 110.861 16.6205 111.278 16.5072C110.636 16.3774 110.059 16.0296 109.644 15.5227C109.229 15.0158 109.003 14.3811 109.003 13.7262V13.6917C109.385 13.9032 109.823 14.0322 110.288 14.0472C109.686 13.6466 109.26 13.0312 109.097 12.3269C108.934 11.6226 109.046 10.8826 109.411 10.2582C110.123 11.1342 111.012 11.8508 112.018 12.3617C113.025 12.8725 114.128 13.1662 115.256 13.2237C115.113 12.6152 115.174 11.9763 115.432 11.4064C115.689 10.8366 116.127 10.3677 116.678 10.0726C117.229 9.77749 117.863 9.67277 118.479 9.7747C119.096 9.87662 119.662 10.1795 120.089 10.6362C120.724 10.5106 121.333 10.2778 121.889 9.94769C121.678 10.6049 121.235 11.163 120.643 11.5182C121.205 11.4505 121.754 11.2993 122.272 11.0697C121.891 11.6395 121.412 12.1368 120.857 12.5382V12.5382Z" fill="white"/>
</g>
<g clip-path="url(#clip2_1803_35258)">
<path d="M69.4996 15.1422C69.4996 16.3357 69.0255 17.4803 68.1816 18.3242C67.3377 19.1681 66.1931 19.6422 64.9996 19.6422C63.8061 19.6422 62.6615 19.1681 61.8176 18.3242C60.9737 17.4803 60.4996 16.3357 60.4996 15.1422C60.4996 14.8857 60.5266 14.6352 60.5731 14.3922H58.9996V20.3877C58.9996 20.8047 59.3371 21.1422 59.7541 21.1422H70.2466C70.4465 21.1418 70.638 21.0621 70.7792 20.9207C70.9203 20.7792 70.9996 20.5875 70.9996 20.3877V14.3922H69.4261C69.4726 14.6352 69.4996 14.8857 69.4996 15.1422V15.1422ZM64.9996 18.1422C65.3937 18.1421 65.7839 18.0644 66.1479 17.9135C66.5119 17.7626 66.8427 17.5415 67.1212 17.2628C67.3998 16.984 67.6208 16.6532 67.7715 16.2891C67.9222 15.925 67.9997 15.5348 67.9996 15.1407C67.9995 14.7466 67.9218 14.3564 67.7709 13.9924C67.62 13.6284 67.3989 13.2976 67.1202 13.0191C66.8415 12.7405 66.5106 12.5195 66.1465 12.3688C65.7824 12.2181 65.3922 12.1406 64.9981 12.1407C64.2023 12.1409 63.4391 12.4572 62.8765 13.0201C62.3139 13.583 61.9979 14.3463 61.9981 15.1422C61.9983 15.938 62.3147 16.7012 62.8775 17.2638C63.4404 17.8264 64.2038 18.1424 64.9996 18.1422V18.1422ZM68.5996 11.9922H70.3981C70.5176 11.9922 70.6322 11.9448 70.7168 11.8605C70.8015 11.7761 70.8492 11.6617 70.8496 11.5422V9.74369C70.8496 9.62394 70.802 9.5091 70.7174 9.42443C70.6327 9.33976 70.5179 9.29219 70.3981 9.29219H68.5996C68.4799 9.29219 68.365 9.33976 68.2804 9.42443C68.1957 9.5091 68.1481 9.62394 68.1481 9.74369V11.5422C68.1496 11.7897 68.3521 11.9922 68.5996 11.9922V11.9922ZM64.9996 0.742188C61.1805 0.742188 57.5178 2.25933 54.8173 4.95985C52.1167 7.66037 50.5996 11.3231 50.5996 15.1422C50.5996 18.9613 52.1167 22.624 54.8173 25.3245C57.5178 28.025 61.1805 29.5422 64.9996 29.5422C66.8906 29.5422 68.7632 29.1697 70.5103 28.4461C72.2573 27.7224 73.8448 26.6617 75.182 25.3245C76.5191 23.9874 77.5798 22.3999 78.3035 20.6528C79.0271 18.9057 79.3996 17.0332 79.3996 15.1422C79.3996 13.2512 79.0271 11.3786 78.3035 9.63155C77.5798 7.88446 76.5191 6.29701 75.182 4.95985C73.8448 3.62269 72.2573 2.56199 70.5103 1.83832C68.7632 1.11465 66.8906 0.742188 64.9996 0.742188V0.742188ZM72.4996 20.9757C72.4996 21.8922 71.7496 22.6422 70.8331 22.6422H59.1661C58.2496 22.6422 57.4996 21.8922 57.4996 20.9757V9.30869C57.4996 8.39219 58.2496 7.64219 59.1661 7.64219H70.8331C71.7496 7.64219 72.4996 8.39219 72.4996 9.30869V20.9757V20.9757Z" fill="white"/>
</g>
<defs>
<clipPath id="clip0_1803_35258">
<rect width="30" height="30" fill="white" transform="translate(0 0.142578)"/>
</clipPath>
<clipPath id="clip1_1803_35258">
<rect width="30" height="30" fill="white" transform="translate(100 0.142578)"/>
</clipPath>
<clipPath id="clip2_1803_35258">
<rect width="30" height="30" fill="white" transform="translate(50 0.142578)"/>
</clipPath>
</defs>
</svg>
