<svg width="32" height="33" viewBox="0 0 32 33" fill="none" xmlns="http://www.w3.org/2000/svg">
<path d="M21.4613 1.88206C20.8025 1.22972 19.9091 0.863281 18.9776 0.863281C18.046 0.863281 17.1526 1.22972 16.4938 1.88206L1.06626 17.1671C0.739982 17.4903 0.481161 17.8741 0.304578 18.2964C0.127995 18.7187 0.0371094 19.1714 0.0371094 19.6285C0.0371094 20.0856 0.127995 20.5382 0.304578 20.9606C0.481161 21.3829 0.739982 21.7666 1.06626 22.0899L2.89651 23.9015C3.69295 24.692 4.81265 24.5512 5.48884 24.1521C5.86185 23.9327 6.298 23.8426 6.72843 23.8961C7.15886 23.9496 7.55904 24.1436 7.86579 24.4475C8.17253 24.7514 8.36836 25.1478 8.42235 25.5742C8.47634 26.0006 8.38542 26.4327 8.16394 26.8022C7.7626 27.4721 7.61893 28.5814 8.41693 29.3704L10.2487 31.1835C10.575 31.5068 10.9624 31.7632 11.3887 31.9381C11.815 32.113 12.2719 32.2031 12.7333 32.2031C13.1947 32.2031 13.6517 32.113 14.078 31.9381C14.5043 31.7632 14.8916 31.5068 15.2179 31.1835L30.6438 15.9016C30.9701 15.5784 31.2289 15.1946 31.4055 14.7723C31.5821 14.35 31.673 13.8973 31.673 13.4402C31.673 12.9831 31.5821 12.5304 31.4055 12.1081C31.2289 11.6858 30.9701 11.3021 30.6438 10.9788L28.8151 9.16565C28.0187 8.37665 26.8974 8.51589 26.2212 8.91503C25.8482 9.13444 25.4121 9.22452 24.9817 9.17103C24.5512 9.11754 24.151 8.92354 23.8443 8.61966C23.5376 8.31578 23.3417 7.91933 23.2877 7.49292C23.2337 7.0665 23.3247 6.63442 23.5461 6.2649C23.949 5.59502 24.0912 4.48577 23.2932 3.69677L21.4629 1.88206H21.4613Z" fill="white"/>
</svg>
