<svg width="36" height="47" viewBox="0 0 36 47" fill="none" xmlns="http://www.w3.org/2000/svg">
<path fill-rule="evenodd" clip-rule="evenodd" d="M17.885 8.9238C9.27648 8.9238 2.23151 16.1271 2.23151 25.0973C2.23151 34.0668 9.2771 41.2695 17.885 41.2695C26.4921 41.2695 33.537 34.0669 33.537 25.0973C33.537 16.1271 26.4913 8.9238 17.885 8.9238ZM0.677734 25.0973C0.677734 15.3641 8.34247 7.4043 17.885 7.4043C27.4254 7.4043 35.0908 15.3641 35.0908 25.0973C35.0908 34.8299 27.426 42.789 17.885 42.789C8.34327 42.789 0.677734 34.83 0.677734 25.0973Z" fill="#CF4037"/>
<path fill-rule="evenodd" clip-rule="evenodd" d="M22.8449 21.3847C22.0879 16.1373 17.6645 13.5462 14.9013 11.994C12.3371 10.5544 10.0412 9.90021 9.9858 10.069C12.9023 12.4142 14.7749 16.0678 14.7749 20.1728C14.7749 26.9043 9.73583 32.4233 3.33398 32.9386L3.73877 33.5636C11.9344 32.2872 33.8669 28.2155 33.8669 28.2155L33.9251 27.737L20.6186 27.2814C22.0872 25.7293 23.0927 23.0945 22.8449 21.3847V21.3847Z" fill="#CF4037"/>
</svg>
