<svg width="17" height="19" viewBox="0 0 17 19" fill="none" xmlns="http://www.w3.org/2000/svg">
<path d="M16.1368 6.88089L11.1377 6.09667L8.903 1.20643C8.84197 1.07254 8.74155 0.96415 8.61751 0.898267C8.30642 0.732496 7.92839 0.870638 7.77285 1.20643L5.53813 6.09667L0.539058 6.88089C0.401234 6.90214 0.275223 6.97228 0.178747 7.07854C0.0621115 7.20794 -0.00215972 7.38203 5.54169e-05 7.56255C0.00227055 7.74308 0.0707908 7.91527 0.19056 8.04129L3.80745 11.8476L2.95295 17.2224C2.93291 17.3475 2.94572 17.4761 2.98995 17.5936C3.03417 17.7112 3.10802 17.813 3.20313 17.8876C3.29825 17.9622 3.41081 18.0065 3.52806 18.0155C3.64532 18.0245 3.76257 17.9979 3.86652 17.9387L8.33792 15.4011L12.8093 17.9387C12.9314 18.0088 13.0732 18.0322 13.209 18.0067C13.5516 17.9429 13.782 17.5922 13.7229 17.2224L12.8684 11.8476L16.4853 8.04129C16.5837 7.93715 16.6487 7.80113 16.6684 7.65236C16.7216 7.28044 16.4814 6.93615 16.1368 6.88089V6.88089Z" fill="#FDBF00"/>
</svg>
