<svg width="16" height="17" viewBox="0 0 16 17" fill="none" xmlns="http://www.w3.org/2000/svg">
<path d="M15.4744 6.20046L10.6806 5.47049L8.53756 0.918542C8.47903 0.793912 8.38274 0.693021 8.26379 0.631696C7.96547 0.477392 7.60295 0.605979 7.4538 0.918542L5.31081 5.47049L0.516931 6.20046C0.384765 6.22024 0.263926 6.28553 0.17141 6.38444C0.059562 6.50489 -0.00207107 6.66693 5.31422e-05 6.83497C0.00217735 7.003 0.0678851 7.16328 0.182738 7.28059L3.65117 10.8236L2.83174 15.8266C2.81252 15.943 2.82481 16.0627 2.86722 16.1721C2.90962 16.2816 2.98045 16.3763 3.07165 16.4458C3.16286 16.5152 3.27081 16.5564 3.38325 16.5648C3.49569 16.5732 3.60813 16.5484 3.70781 16.4933L7.99568 14.1313L12.2835 16.4933C12.4006 16.5586 12.5366 16.5803 12.6668 16.5566C12.9954 16.4972 13.2163 16.1708 13.1596 15.8266L12.3402 10.8236L15.8086 7.28059C15.903 7.18365 15.9653 7.05704 15.9842 6.91857C16.0352 6.57237 15.8048 6.2519 15.4744 6.20046V6.20046Z" fill="#FDBF00"/>
</svg>
