<svg width="19" height="17" viewBox="0 0 19 17" fill="none" xmlns="http://www.w3.org/2000/svg">
<path d="M18.1989 6.05007L12.561 5.3201L10.0407 0.768151C9.97186 0.643521 9.85862 0.542631 9.71873 0.481305C9.36788 0.327002 8.94154 0.455588 8.76612 0.768151L6.24584 5.3201L0.607943 6.05007C0.452507 6.06985 0.310394 6.13514 0.201588 6.23405C0.0700486 6.3545 -0.0024357 6.51654 6.24985e-05 6.68458C0.0025607 6.85261 0.079837 7.01289 0.214911 7.13019L4.294 10.6732L3.3303 15.6762C3.3077 15.7926 3.32215 15.9123 3.37203 16.0217C3.4219 16.1312 3.50519 16.226 3.61246 16.2954C3.71972 16.3648 3.84667 16.406 3.97891 16.4144C4.11115 16.4228 4.24338 16.398 4.36062 16.3429L9.40341 13.9809L14.4462 16.3429C14.5839 16.4082 14.7438 16.4299 14.897 16.4062C15.2833 16.3468 15.5431 16.0204 15.4765 15.6762L14.5128 10.6732L18.5919 7.13019C18.7029 7.03326 18.7762 6.90665 18.7984 6.76817C18.8584 6.42198 18.5875 6.10151 18.1989 6.05007V6.05007Z" fill="#FDBF00"/>
</svg>
