<svg width="16" height="17" viewBox="0 0 16 17" fill="none" xmlns="http://www.w3.org/2000/svg">
<path d="M15.4744 6.4739L10.6806 5.74393L8.53756 1.19198C8.47903 1.06735 8.38274 0.966459 8.26379 0.905133C7.96547 0.75083 7.60295 0.879416 7.4538 1.19198L5.31081 5.74393L0.516931 6.4739C0.384765 6.49368 0.263926 6.55896 0.17141 6.65788C0.059562 6.77832 -0.00207107 6.94037 5.31422e-05 7.10841C0.00217735 7.27644 0.0678851 7.43672 0.182738 7.55402L3.65117 11.0971L2.83174 16.1001C2.81252 16.2164 2.82481 16.3361 2.86722 16.4456C2.90962 16.555 2.98045 16.6498 3.07165 16.7192C3.16286 16.7886 3.27081 16.8298 3.38325 16.8382C3.49569 16.8466 3.60813 16.8219 3.70781 16.7667L7.99568 14.4047L12.2835 16.7667C12.4006 16.832 12.5366 16.8538 12.6668 16.83C12.9954 16.7707 13.2163 16.4443 13.1596 16.1001L12.3402 11.0971L15.8086 7.55402C15.903 7.45709 15.9653 7.33048 15.9842 7.192C16.0352 6.84581 15.8048 6.52533 15.4744 6.4739V6.4739Z" fill="#FDBF00"/>
</svg>
