<svg width="17" height="19" viewBox="0 0 17 19" fill="none" xmlns="http://www.w3.org/2000/svg">
<path d="M16.1058 6.88089L11.1163 6.09667L8.88591 1.20643C8.82499 1.07254 8.72477 0.96415 8.60097 0.898267C8.29048 0.732496 7.91317 0.870638 7.75792 1.20643L5.5275 6.09667L0.538023 6.88089C0.400464 6.90214 0.274695 6.97228 0.178403 7.07854C0.0619923 7.20794 -0.00215557 7.38203 5.53105e-05 7.56255C0.00226619 7.74308 0.0706549 7.91527 0.190194 8.04129L3.80015 11.8476L2.94728 17.2224C2.92728 17.3475 2.94007 17.4761 2.98421 17.5936C3.02834 17.7112 3.10205 17.813 3.19698 17.8876C3.29191 17.9622 3.40426 18.0065 3.52129 18.0155C3.63832 18.0245 3.75535 17.9979 3.8591 17.9387L8.32192 15.4011L12.7847 17.9387C12.9066 18.0088 13.0481 18.0322 13.1837 18.0067C13.5256 17.9429 13.7555 17.5922 13.6966 17.2224L12.8437 11.8476L16.4536 8.04129C16.5519 7.93715 16.6167 7.80113 16.6364 7.65236C16.6895 7.28044 16.4497 6.93615 16.1058 6.88089V6.88089Z" fill="#FDBF00"/>
</svg>
