<svg width="17" height="19" viewBox="0 0 17 19" fill="none" xmlns="http://www.w3.org/2000/svg">
<path d="M16.1058 6.88089L11.1163 6.09667L8.88589 1.20643C8.82497 1.07254 8.72475 0.96415 8.60095 0.898267C8.29046 0.732496 7.91315 0.870638 7.75791 1.20643L5.52748 6.09667L0.538022 6.88089C0.400463 6.90214 0.274694 6.97228 0.178403 7.07854C0.0619921 7.20794 -0.00215557 7.38203 5.53104e-05 7.56255C0.00226619 7.74308 0.0706548 7.91527 0.190194 8.04129L3.80014 11.8476L2.94727 17.2224C2.92727 17.3475 2.94006 17.4761 2.9842 17.5936C3.02833 17.7112 3.10205 17.813 3.19698 17.8876C3.29191 17.9622 3.40426 18.0065 3.52128 18.0155C3.63831 18.0245 3.75534 17.9979 3.85909 17.9387L8.3219 15.4011L12.7847 17.9387C12.9065 18.0088 13.048 18.0322 13.1836 18.0067C13.5256 17.9429 13.7555 17.5922 13.6965 17.2224L12.8437 11.8476L16.4536 8.04129C16.5519 7.93715 16.6167 7.80113 16.6364 7.65236C16.6894 7.28044 16.4497 6.93615 16.1058 6.88089V6.88089Z" fill="#FDBF00"/>
</svg>
