<svg width="29" height="27" viewBox="0 0 29 27" fill="none" xmlns="http://www.w3.org/2000/svg">
<path d="M25.1756 4.60443C24.8605 3.74401 23.9779 3.13151 22.9378 3.13151H18.998V1.67318C18.998 0.871094 18.2889 0.214844 17.4221 0.214844H11.1184C10.2516 0.214844 9.54247 0.871094 9.54247 1.67318V3.13151H5.60265C4.56254 3.13151 3.69578 3.74401 3.36484 4.60443L0.260266 12.8732C0.149951 13.1794 0.0869141 13.5003 0.0869141 13.8357V24.2773C0.0869141 25.4878 1.14278 26.4648 2.4508 26.4648C3.75882 26.4648 4.81469 25.4878 4.81469 24.2773V23.5482H23.7258V24.2773C23.7258 25.4732 24.7817 26.4648 26.0897 26.4648C27.3819 26.4648 28.4536 25.4878 28.4536 24.2773V13.8357C28.4536 13.5148 28.3905 13.1794 28.2802 12.8732L25.1756 4.60443ZM5.60265 19.1732C4.29464 19.1732 3.23877 18.1961 3.23877 16.9857C3.23877 15.7753 4.29464 14.7982 5.60265 14.7982C6.91067 14.7982 7.96654 15.7753 7.96654 16.9857C7.96654 18.1961 6.91067 19.1732 5.60265 19.1732ZM22.9378 19.1732C21.6298 19.1732 20.5739 18.1961 20.5739 16.9857C20.5739 15.7753 21.6298 14.7982 22.9378 14.7982C24.2459 14.7982 25.3017 15.7753 25.3017 16.9857C25.3017 18.1961 24.2459 19.1732 22.9378 19.1732ZM3.23877 11.8815L5.60265 5.31901H22.9378L25.3017 11.8815H3.23877Z" fill="white"/>
</svg>
