<svg width="19" height="17" viewBox="0 0 19 17" fill="none" xmlns="http://www.w3.org/2000/svg">
<path d="M18.1989 6.62624L12.561 5.89627L10.0407 1.34432C9.97186 1.21969 9.85862 1.1188 9.71873 1.05748C9.36788 0.903174 8.94154 1.03176 8.76612 1.34432L6.24584 5.89627L0.607943 6.62624C0.452507 6.64603 0.310394 6.71131 0.201588 6.81022C0.0700486 6.93067 -0.0024357 7.09271 6.24985e-05 7.26075C0.0025607 7.42879 0.079837 7.58906 0.214911 7.70637L4.294 11.2494L3.3303 16.2524C3.3077 16.3688 3.32215 16.4885 3.37203 16.5979C3.4219 16.7073 3.50519 16.8021 3.61246 16.8715C3.71972 16.9409 3.84667 16.9822 3.97891 16.9906C4.11115 16.999 4.24338 16.9742 4.36062 16.9191L9.40341 14.557L14.4462 16.9191C14.5839 16.9843 14.7438 17.0061 14.897 16.9824C15.2833 16.923 15.5431 16.5966 15.4765 16.2524L14.5128 11.2494L18.5919 7.70637C18.7029 7.60943 18.7762 7.48282 18.7984 7.34435C18.8584 6.99815 18.5875 6.67768 18.1989 6.62624V6.62624Z" fill="#FDBF00"/>
</svg>
