<svg width="28" height="32" viewBox="0 0 28 32" fill="none" xmlns="http://www.w3.org/2000/svg">
<path d="M0.46875 23.5072C0.46875 24.9738 1.12487 26.2905 2.15112 27.2072V29.3405C2.15112 30.7238 3.2783 31.8405 4.67466 31.8405C6.07103 31.8405 7.19821 30.7238 7.19821 29.3405V28.5072H20.6571V29.3405C20.6571 30.7072 21.7843 31.8405 23.1807 31.8405C24.5602 31.8405 25.7042 30.7238 25.7042 29.3405V27.2072C26.7305 26.2905 27.3866 24.9738 27.3866 23.5072V6.84049C27.3866 1.00716 21.3637 0.173828 13.9277 0.173828C6.49162 0.173828 0.46875 1.00716 0.46875 6.84049V23.5072ZM6.35703 25.1738C4.96067 25.1738 3.83348 24.0572 3.83348 22.6738C3.83348 21.2905 4.96067 20.1738 6.35703 20.1738C7.75339 20.1738 8.88058 21.2905 8.88058 22.6738C8.88058 24.0572 7.75339 25.1738 6.35703 25.1738ZM21.4983 25.1738C20.102 25.1738 18.9748 24.0572 18.9748 22.6738C18.9748 21.2905 20.102 20.1738 21.4983 20.1738C22.8947 20.1738 24.0219 21.2905 24.0219 22.6738C24.0219 24.0572 22.8947 25.1738 21.4983 25.1738ZM24.0219 15.1738H3.83348V6.84049H24.0219V15.1738Z" fill="white"/>
</svg>
