<svg width="27" height="25" viewBox="0 0 27 25" fill="none" xmlns="http://www.w3.org/2000/svg">
<path d="M23.7502 0.894531H2.86287C1.42295 0.894531 0.251953 2.0546 0.251953 3.48109V21.587C0.251953 23.0135 1.42295 24.1736 2.86287 24.1736H23.7502C25.1901 24.1736 26.3611 23.0135 26.3611 21.587V3.48109C26.3611 2.0546 25.1901 0.894531 23.7502 0.894531ZM23.7515 8.65421C23.7502 8.65421 23.7502 8.65421 23.7515 8.65421H23.1444L19.6628 3.48109H23.7502L23.7515 8.65421ZM17.8756 16.4139L10.6956 20.2937V12.5341L17.8756 16.4139ZM16.6172 8.65421L13.1355 3.48109H16.5245L20.0061 8.65421H16.6172V8.65421ZM13.4788 8.65421H10.0899L6.60822 3.48109H9.99719L13.4788 8.65421ZM2.86287 3.48109H3.4699L6.95156 8.65421H2.86287V3.48109Z" fill="white"/>
</svg>
