<svg width="25" height="26" viewBox="0 0 25 26" fill="none" xmlns="http://www.w3.org/2000/svg">
<g clip-path="url(#clip0_1803_34655)">
<path d="M12.5 23.6315C9.76733 23.6315 7.14661 22.546 5.21434 20.6137C3.28207 18.6815 2.19653 16.0607 2.19653 13.3281C2.19653 10.5955 3.28207 7.97473 5.21434 6.04246C7.14661 4.11019 9.76733 3.02465 12.5 3.02465C15.2326 3.02465 17.8533 4.11019 19.7856 6.04246C21.7179 7.97473 22.8034 10.5955 22.8034 13.3281C22.8034 16.0607 21.7179 18.6815 19.7856 20.6137C17.8533 22.546 15.2326 23.6315 12.5 23.6315ZM12.5 25.1034C15.623 25.1034 18.6181 23.8628 20.8264 21.6545C23.0347 19.4462 24.2753 16.4511 24.2753 13.3281C24.2753 10.2051 23.0347 7.20996 20.8264 5.00166C18.6181 2.79335 15.623 1.55273 12.5 1.55273C9.37695 1.55273 6.38184 2.79335 4.17353 5.00166C1.96522 7.20996 0.724609 10.2051 0.724609 13.3281C0.724609 16.4511 1.96522 19.4462 4.17353 21.6545C6.38184 23.8628 9.37695 25.1034 12.5 25.1034V25.1034Z" fill="#1262AF"/>
<path d="M9.87124 8.32856C10.0101 8.25706 10.166 8.22525 10.3218 8.23663C10.4775 8.24802 10.6271 8.30215 10.7541 8.39308L16.6965 12.6376C16.8065 12.7162 16.8962 12.8198 16.9581 12.94C17.02 13.0602 17.0523 13.1935 17.0523 13.3286C17.0523 13.4638 17.02 13.5971 16.9581 13.7173C16.8962 13.8375 16.8065 13.9411 16.6965 14.0197L10.7541 18.2642C10.6272 18.3551 10.4776 18.4092 10.3219 18.4205C10.1663 18.4319 10.0105 18.4002 9.87164 18.3287C9.73284 18.2573 9.61641 18.149 9.53517 18.0157C9.45392 17.8824 9.41101 17.7293 9.41113 17.5732V9.08409C9.41097 8.92803 9.45383 8.77495 9.535 8.64166C9.61617 8.50837 9.73251 8.40004 9.87124 8.32856V8.32856Z" fill="#1262AF"/>
</g>
<defs>
<clipPath id="clip0_1803_34655">
<rect width="25" height="25" fill="white" transform="translate(0 0.828125)"/>
</clipPath>
</defs>
</svg>
