<svg width="25" height="25" viewBox="0 0 25 25" fill="none" xmlns="http://www.w3.org/2000/svg">
<g clip-path="url(#clip0_1803_35118)">
<path d="M12.8727 22.7308C10.2494 22.7308 7.73348 21.6887 5.8785 19.8337C4.02352 17.9787 2.9814 15.4628 2.9814 12.8395C2.9814 10.2162 4.02352 7.70027 5.8785 5.84529C7.73348 3.99032 10.2494 2.9482 12.8727 2.9482C15.496 2.9482 18.0119 3.99032 19.8669 5.84529C21.7219 7.70027 22.764 10.2162 22.764 12.8395C22.764 15.4628 21.7219 17.9787 19.8669 19.8337C18.0119 21.6887 15.496 22.7308 12.8727 22.7308ZM12.8727 24.1438C15.8708 24.1438 18.7461 22.9529 20.8661 20.8329C22.9861 18.7129 24.177 15.8376 24.177 12.8395C24.177 9.8414 22.9861 6.9661 20.8661 4.84612C18.7461 2.72615 15.8708 1.53516 12.8727 1.53516C9.8746 1.53516 6.9993 2.72615 4.87932 4.84612C2.75935 6.9661 1.56836 9.8414 1.56836 12.8395C1.56836 15.8376 2.75935 18.7129 4.87932 20.8329C6.9993 22.9529 9.8746 24.1438 12.8727 24.1438V24.1438Z" fill="#1262AF"/>
<path d="M10.3499 8.03964C10.4832 7.971 10.6329 7.94046 10.7824 7.95139C10.9319 7.96231 11.0756 8.01428 11.1975 8.10157L16.9021 12.1763C17.0078 12.2517 17.0939 12.3513 17.1533 12.4666C17.2127 12.582 17.2437 12.7099 17.2437 12.8397C17.2437 12.9695 17.2127 13.0974 17.1533 13.2128C17.0939 13.3282 17.0078 13.4277 16.9021 13.5031L11.1975 17.5779C11.0756 17.6651 10.932 17.717 10.7826 17.7279C10.6331 17.7389 10.4835 17.7084 10.3503 17.6398C10.217 17.5712 10.1053 17.4673 10.0273 17.3393C9.94928 17.2113 9.90808 17.0643 9.9082 16.9145V8.76495C9.90805 8.61513 9.94919 8.46817 10.0271 8.34021C10.105 8.21225 10.2167 8.10825 10.3499 8.03964V8.03964Z" fill="#1262AF"/>
</g>
<defs>
<clipPath id="clip0_1803_35118">
<rect width="24" height="24" fill="white" transform="translate(0.873047 0.839844)"/>
</clipPath>
</defs>
</svg>
