<svg width="25" height="25" viewBox="0 0 25 25" fill="none" xmlns="http://www.w3.org/2000/svg">
<g clip-path="url(#clip0_1803_35170)">
<path d="M12.8727 22.4574C10.2494 22.4574 7.73348 21.4152 5.8785 19.5603C4.02352 17.7053 2.9814 15.1894 2.9814 12.5661C2.9814 9.94273 4.02352 7.42683 5.8785 5.57186C7.73348 3.71688 10.2494 2.67476 12.8727 2.67476C15.496 2.67476 18.0119 3.71688 19.8669 5.57186C21.7219 7.42683 22.764 9.94273 22.764 12.5661C22.764 15.1894 21.7219 17.7053 19.8669 19.5603C18.0119 21.4152 15.496 22.4574 12.8727 22.4574ZM12.8727 23.8704C15.8708 23.8704 18.7461 22.6794 20.8661 20.5594C22.9861 18.4395 24.177 15.5642 24.177 12.5661C24.177 9.56796 22.9861 6.69266 20.8661 4.57268C18.7461 2.45271 15.8708 1.26172 12.8727 1.26172C9.8746 1.26172 6.9993 2.45271 4.87932 4.57268C2.75935 6.69266 1.56836 9.56796 1.56836 12.5661C1.56836 15.5642 2.75935 18.4395 4.87932 20.5594C6.9993 22.6794 9.8746 23.8704 12.8727 23.8704V23.8704Z" fill="#1262AF"/>
<path d="M10.3499 7.7662C10.4832 7.69756 10.6329 7.66702 10.7824 7.67795C10.9319 7.68888 11.0756 7.74085 11.1975 7.82814L16.9021 11.9029C17.0078 11.9783 17.0939 12.0778 17.1533 12.1932C17.2127 12.3086 17.2437 12.4365 17.2437 12.5663C17.2437 12.6961 17.2127 12.824 17.1533 12.9394C17.0939 13.0547 17.0078 13.1543 16.9021 13.2296L11.1975 17.3044C11.0756 17.3916 10.932 17.4436 10.7826 17.4545C10.6331 17.4654 10.4835 17.4349 10.3503 17.3664C10.217 17.2978 10.1053 17.1938 10.0273 17.0659C9.94928 16.9379 9.90808 16.7909 9.9082 16.641V8.49151C9.90805 8.34169 9.94919 8.19473 10.0271 8.06677C10.105 7.93882 10.2167 7.83482 10.3499 7.7662V7.7662Z" fill="#1262AF"/>
</g>
<defs>
<clipPath id="clip0_1803_35170">
<rect width="24" height="24" fill="white" transform="translate(0.873047 0.566406)"/>
</clipPath>
</defs>
</svg>
