<svg width="174" height="33" viewBox="0 0 174 33" fill="none" xmlns="http://www.w3.org/2000/svg">
<path d="M129.851 7.89887C131.214 7.89887 132.452 8.07226 133.564 8.41905C134.676 8.76583 135.615 9.21426 136.38 9.76434C136.858 10.0992 137.235 10.4699 137.51 10.8764C137.785 11.283 137.923 11.8092 137.923 12.4549V25.011L137.917 25.3524C137.877 26.476 137.64 27.4564 137.205 28.2935C136.727 29.2143 136.075 29.9796 135.25 30.5894C134.425 31.1993 133.456 31.6477 132.344 31.9347C131.232 32.2217 130.042 32.3652 128.775 32.3652C126.598 32.3652 124.888 32.0723 123.645 31.4863C122.401 30.9004 121.779 29.9497 121.779 28.6343C121.779 28.0842 121.893 27.5999 122.12 27.1814C122.347 26.7628 122.604 26.446 122.891 26.2307C123.585 26.6134 124.368 26.9362 125.241 27.1993C126.114 27.4624 127.017 27.5939 127.95 27.5939C129.241 27.5939 130.269 27.3787 131.035 26.9482C131.8 26.5177 132.183 25.8241 132.183 24.8675V24.2935L131.91 24.4056C130.983 24.7613 129.878 24.9392 128.595 24.9392C127.519 24.9392 126.497 24.7778 125.528 24.4549C124.559 24.132 123.71 23.6298 122.981 22.9482C122.251 22.2666 121.665 21.3877 121.223 20.3114C120.781 19.2352 120.559 17.9557 120.559 16.4729C120.559 15.014 120.793 13.7464 121.259 12.6702C121.725 11.5939 122.371 10.7031 123.196 9.99752C124.021 9.29199 125.002 8.76583 126.138 8.41905C127.274 8.07226 128.512 7.89887 129.851 7.89887ZM33.2869 8.45579C35.4197 8.45579 37.165 8.93437 38.5227 9.89153C39.8804 10.8487 40.6841 12.5393 40.9338 14.9634H36.3769L36.3333 14.6953C36.2301 14.1666 36.0313 13.6838 35.737 13.2468C35.2377 12.5601 34.4626 12.2168 33.4118 12.2168C31.9136 12.2168 30.8888 12.9607 30.3374 14.4484C30.0461 15.2391 29.9004 16.2899 29.9004 17.6008C29.9004 18.8493 30.0461 19.8533 30.3374 20.6128C30.868 22.0277 31.8668 22.7352 33.3337 22.7352C34.3741 22.7352 35.1128 22.4543 35.5498 21.8925C35.9867 21.3306 36.252 20.6024 36.3457 19.7076H40.887L40.8561 20.0185C40.7054 21.2566 40.2267 22.4327 39.42 23.5467C38.0259 25.4922 35.9607 26.465 33.2245 26.465C30.4883 26.465 28.4751 25.6535 27.185 24.0305C25.8949 22.4075 25.2499 20.3007 25.2499 17.7101C25.2499 14.7866 25.9626 12.5133 27.3879 10.8903C28.8132 9.26729 30.7796 8.45579 33.2869 8.45579ZM74.6185 8.40897C76.0334 8.40897 77.3079 8.67427 78.4419 9.20487C79.5759 9.73547 80.5123 10.573 81.251 11.7174C81.9168 12.7266 82.3486 13.897 82.5462 15.2287C82.6607 16.009 82.7075 17.1327 82.6867 18.5996H71.0447L71.0606 18.8954C71.1718 20.4449 71.7023 21.5427 72.6521 22.189C73.2659 22.6155 74.0046 22.8288 74.8681 22.8288C75.7837 22.8288 76.5276 22.5687 77.0998 22.0485C77.4119 21.7676 77.6876 21.3775 77.9269 20.8781H82.4682L82.4345 21.1112C82.2705 22.045 81.7563 22.9921 80.892 23.9524C79.4355 25.6067 77.3963 26.4338 74.7745 26.4338C72.6105 26.4338 70.7014 25.7367 69.0471 24.3426C67.3929 22.9485 66.5658 20.6804 66.5658 17.5384C66.5658 14.5941 67.3123 12.3365 68.8053 10.7655C70.2982 9.19447 72.236 8.40897 74.6185 8.40897ZM105.848 2.15896C106.374 2.15896 106.846 2.19483 107.265 2.26658C107.683 2.33833 108.036 2.48183 108.323 2.69707C108.61 2.91232 108.831 3.20529 108.987 3.576C109.142 3.9467 109.22 4.431 109.22 5.02891V25.8361L109.099 25.8577C108.843 25.9031 108.495 25.9616 108.054 26.0334C107.54 26.1171 107.019 26.159 106.493 26.159C105.967 26.159 105.495 26.1231 105.076 26.0513C104.658 25.9796 104.305 25.8361 104.018 25.6208C103.731 25.4056 103.51 25.1126 103.354 24.7419C103.199 24.3712 103.121 23.8869 103.121 23.289V2.48183L103.242 2.46023C103.498 2.41484 103.846 2.35627 104.287 2.28452C104.801 2.20081 105.321 2.15896 105.848 2.15896ZM115.015 8.36523C115.541 8.36523 116.014 8.40111 116.432 8.47286C116.851 8.54461 117.203 8.6881 117.49 8.90335C117.777 9.1186 117.999 9.41157 118.154 9.78228C118.31 10.153 118.387 10.6373 118.387 11.2352V25.8361L118.267 25.8577C118.011 25.9031 117.662 25.9616 117.221 26.0334C116.707 26.1171 116.187 26.159 115.661 26.159C115.135 26.159 114.662 26.1231 114.244 26.0513C113.825 25.9796 113.473 25.8361 113.186 25.6208C112.899 25.4056 112.677 25.1126 112.522 24.7419C112.366 24.3712 112.289 23.8869 112.289 23.289V8.6881L112.409 8.66651C112.665 8.62111 113.014 8.56254 113.455 8.4908C113.969 8.40709 114.489 8.36523 115.015 8.36523ZM143.574 2.15896C144.101 2.15896 144.573 2.19483 144.991 2.26658C145.41 2.33833 145.763 2.48183 146.05 2.69707C146.337 2.91232 146.558 3.20529 146.713 3.576C146.869 3.9467 146.947 4.431 146.947 5.02891V8.54461L147.071 8.49892C147.378 8.39036 147.809 8.26807 148.364 8.13205C148.997 7.97659 149.697 7.89887 150.462 7.89887C152.83 7.89887 154.678 8.49079 156.005 9.67465C157.332 10.8585 157.996 12.6223 157.996 14.9661V25.8361L157.885 25.8668C157.646 25.9283 157.307 25.9898 156.866 26.0513C156.352 26.1231 155.82 26.159 155.27 26.159C154.743 26.159 154.271 26.1231 153.852 26.0513C153.434 25.9796 153.081 25.8361 152.794 25.6208C152.507 25.4056 152.286 25.1126 152.131 24.7419C151.975 24.3712 151.897 23.8869 151.897 23.289V15.3249L151.893 15.1038C151.858 14.2403 151.614 13.6264 151.162 13.2621C150.672 12.8675 150.068 12.6702 149.35 12.6702C148.872 12.6702 148.417 12.73 147.987 12.8495C147.557 12.9691 147.21 13.1126 146.947 13.28V25.8361L146.836 25.8668C146.597 25.9283 146.257 25.9898 145.817 26.0513C145.302 26.1231 144.77 26.159 144.22 26.159C143.694 26.159 143.222 26.1231 142.803 26.0513C142.385 25.9796 142.032 25.8361 141.745 25.6208C141.458 25.4056 141.237 25.1126 141.081 24.7419C140.926 24.3712 140.848 23.8869 140.848 23.289V2.48183L140.968 2.46023C141.225 2.41484 141.573 2.35627 142.014 2.28452C142.528 2.20081 143.048 2.15896 143.574 2.15896ZM100.626 4.13205L100.708 4.27106C100.843 4.51521 100.965 4.82164 101.075 5.19035C101.206 5.6328 101.272 6.09319 101.272 6.57151C101.272 7.50425 101.075 8.16793 100.68 8.56254C100.285 8.95716 99.7533 9.15447 99.0836 9.15447H91.55V13.2083H99.4065L99.4997 13.3468C99.6508 13.5893 99.7812 13.8899 99.8908 14.2486C100.022 14.6791 100.088 15.1335 100.088 15.6119C100.088 16.5207 99.8908 17.1724 99.4962 17.567C99.1016 17.9616 98.5694 18.159 97.8998 18.159H91.6217V25.7285L91.4998 25.7592C91.2377 25.8207 90.8658 25.8822 90.3841 25.9437C89.822 26.0155 89.266 26.0513 88.7159 26.0513C88.1658 26.0513 87.6815 26.0095 87.263 25.9258C86.8445 25.8421 86.4917 25.6926 86.2047 25.4773C85.9177 25.2621 85.7025 24.9631 85.559 24.5805C85.4155 24.1978 85.3437 23.6956 85.3437 23.0738V7.46837L85.3499 7.21576C85.3956 6.30594 85.6925 5.57699 86.2406 5.02891C86.8385 4.431 87.6516 4.13205 88.68 4.13205H100.626ZM16.3082 2.90009V6.94202H4.7754V12.2324H14.8724V16.2275H4.7754V25.872H0V2.90009H16.3082ZM22.8234 8.86154V25.872H18.3133V8.86154H22.8234ZM47.4022 2.94691V15.338L52.9423 8.93957H58.4512L52.5054 15.4472L58.6853 25.872H53.3169L49.2437 18.5996L47.4022 20.5191V25.872H43.0326V2.94691H47.4022ZM64.4827 2.86888V25.872H60.035V2.86888H64.4827ZM158.328 3.98452C159.074 3.76033 160.346 3.71046 161.836 4.36918C163.339 5.03415 164.277 6.17475 164.649 7.79095L172.721 8.47698C172.821 8.48277 172.92 8.50302 173.019 8.53773C173.167 8.58978 173.247 8.66302 173.314 8.72035C173.478 8.86092 173.531 8.96931 173.609 9.1634C173.748 9.50853 173.706 9.91473 173.525 10.1933C173.233 10.6423 172.777 10.9328 172.156 11.0649L165.639 12.45L166.79 17.8616C166.922 18.4828 167.213 18.8829 167.663 19.0619C168.113 19.2409 168.696 19.2543 169.413 19.1019C169.772 19.0257 170.136 18.9171 170.505 18.7761C170.875 18.6352 171.193 18.4864 171.459 18.3299C171.73 18.547 171.977 18.8003 172.201 19.0899C172.425 19.3794 172.585 19.7512 172.682 20.2051C173.038 21.8833 170.397 23.4687 168.666 23.7798C167.062 24.0679 164.602 24.3073 163.195 20.6226C161.789 16.9379 159.58 10.7615 157.894 5.61424C157.748 5.17005 157.658 4.73377 157.814 4.37377C157.899 4.17919 157.96 4.09519 158.328 3.98452ZM130.138 12.6702C128.966 12.6702 128.087 12.999 127.501 13.6567C126.915 14.3144 126.622 15.2531 126.622 16.4729C126.622 17.86 126.915 18.8585 127.501 19.4684C128.087 20.0782 128.834 20.3832 129.743 20.3832C130.724 20.3832 131.501 20.156 132.075 19.7016V13.1007L131.965 13.0433C131.806 12.9667 131.598 12.8902 131.34 12.8137C131.017 12.718 130.616 12.6702 130.138 12.6702ZM74.6185 12.0764C73.5885 12.0764 72.79 12.3989 72.2229 13.0439C71.6559 13.689 71.2996 14.5629 71.1539 15.6657H78.0674C77.9945 14.4901 77.6382 13.5979 76.9984 12.9893C76.3585 12.3807 75.5652 12.0764 74.6185 12.0764ZM22.8234 2.72842V6.83277H18.3133V2.72842H22.8234ZM115.338 0.365234C116.342 0.365234 117.15 0.676146 117.76 1.29797C118.369 1.91979 118.674 2.68511 118.674 3.59393C118.674 4.50275 118.369 5.26807 117.76 5.8899C117.15 6.51172 116.342 6.82263 115.338 6.82263C114.334 6.82263 113.526 6.51172 112.916 5.8899C112.307 5.26807 112.002 4.50275 112.002 3.59393C112.002 2.68511 112.307 1.91979 112.916 1.29797C113.526 0.676146 114.334 0.365234 115.338 0.365234Z" fill="url(#paint0_linear_1803_35070)"/>
<defs>
<linearGradient id="paint0_linear_1803_35070" x1="161.08" y1="15.9844" x2="1.59577" y2="32.2181" gradientUnits="userSpaceOnUse">
<stop stop-color="#299BD8"/>
<stop offset="1" stop-color="#1262AF"/>
</linearGradient>
</defs>
</svg>
